<svg xmlns="http://www.w3.org/2000/svg" width="20.083" height="23.211" viewBox="0 0 20.083 23.211">
  <g id="icon-secure" transform="translate(0.513 0.5)">
    <path id="path" d="M395.534,528.8l2.393,2.393,5.528-5.529" transform="translate(-389.693 -517.333)" fill="none" stroke="#748a9d" stroke-linecap="round" stroke-linejoin="round" stroke-width="1"/>
    <path id="path-2" data-name="path" d="M399.916,539.412c9.466-3.588,9.058-14.431,8.687-17.8a.98.98,0,0,0-1.072-.868,8.757,8.757,0,0,1-7.563-3.072.987.987,0,0,0-1.492,0,8.756,8.756,0,0,1-7.563,3.072.98.98,0,0,0-1.072.868c-.371,3.367-.779,14.21,8.687,17.8A1.974,1.974,0,0,0,399.916,539.412Z" transform="translate(-389.693 -517.333)" fill="none" stroke="#748a9d" stroke-linecap="round" stroke-linejoin="round" stroke-width="1"/>
  </g>
</svg>
