<svg xmlns="http://www.w3.org/2000/svg" width="41" height="19" viewBox="0 0 41 19">
  <g id="icon-fast-delivery" transform="translate(0.5 0.5)">
    <path id="path" d="M459,494.668" transform="translate(-427.5 -481.5)" fill="none" stroke="#748a9d" stroke-linecap="round" stroke-linejoin="round" stroke-width="1"/>
    <path id="path-2" data-name="path" d="M463.5,495.5h4v-5.994a4.005,4.005,0,0,0-4.006-4.006H459.5v.006a4.005,4.005,0,0,0-4.006-4.006H444.506a4.005,4.005,0,0,0-4.006,4.006V495.5" transform="translate(-427.5 -481.5)" fill="none" stroke="#748a9d" stroke-linecap="round" stroke-linejoin="round" stroke-width="1"/>
    <circle id="ellipse" cx="2" cy="2" r="2" transform="translate(17 14)" fill="none" stroke="#748a9d" stroke-linecap="round" stroke-linejoin="round" stroke-width="1"/>
    <circle id="ellipse-2" data-name="ellipse" cx="2" cy="2" r="2" transform="translate(30 14)" fill="none" stroke="#748a9d" stroke-linecap="round" stroke-linejoin="round" stroke-width="1"/>
    <line id="line" x1="2" transform="translate(13 14)" fill="none" stroke="#748a9d" stroke-linecap="round" stroke-linejoin="round" stroke-width="1"/>
    <line id="line-2" data-name="line" x1="5" transform="translate(23 14)" fill="none" stroke="#748a9d" stroke-linecap="round" stroke-linejoin="round" stroke-width="1"/>
    <path id="path-3" data-name="path" d="M467.5,488.5h-5v3h5" transform="translate(-427.5 -481.5)" fill="none" stroke="#748a9d" stroke-linecap="round" stroke-linejoin="round" stroke-width="1"/>
    <line id="line-3" data-name="line" y2="7" transform="translate(32 4)" fill="none" stroke="#748a9d" stroke-linecap="round" stroke-linejoin="round" stroke-width="1"/>
    <line id="line-4" data-name="line" x1="10" transform="translate(0 14)" fill="none" stroke="#748a9d" stroke-linecap="round" stroke-linejoin="round" stroke-width="1"/>
    <line id="line-5" data-name="line" x1="6" transform="translate(4 10)" fill="none" stroke="#748a9d" stroke-linecap="round" stroke-linejoin="round" stroke-width="1"/>
    <line id="line-6" data-name="line" x1="2" transform="translate(8 6)" fill="none" stroke="#748a9d" stroke-linecap="round" stroke-linejoin="round" stroke-width="1"/>
  </g>
</svg>
