<svg xmlns="http://www.w3.org/2000/svg" width="28" height="19" viewBox="0 0 28 19">
  <g id="icon-delivery" transform="translate(0.5 0.5)">
    <path id="path" d="M459,560" transform="translate(-440.5 -546.5)" fill="none" stroke="#748a9d" stroke-linecap="round" stroke-linejoin="round" stroke-width="1"/>
    <path id="path-2" data-name="path" d="M463.5,560.5h4v-5.994a4.005,4.005,0,0,0-4.006-4.006H459.5v.006a4.005,4.005,0,0,0-4.006-4.006H444.506a4.005,4.005,0,0,0-4.006,4.006V560.5" transform="translate(-440.5 -546.5)" fill="none" stroke="#748a9d" stroke-linecap="round" stroke-linejoin="round" stroke-width="1"/>
    <circle id="ellipse" cx="2" cy="2" r="2" transform="translate(4 14)" fill="none" stroke="#748a9d" stroke-linecap="round" stroke-linejoin="round" stroke-width="1"/>
    <circle id="ellipse-2" data-name="ellipse" cx="2" cy="2" r="2" transform="translate(17 14)" fill="none" stroke="#748a9d" stroke-linecap="round" stroke-linejoin="round" stroke-width="1"/>
    <line id="line" x1="2" transform="translate(0 14)" fill="none" stroke="#748a9d" stroke-linecap="round" stroke-linejoin="round" stroke-width="1"/>
    <line id="line-2" data-name="line" x1="5" transform="translate(10 14)" fill="none" stroke="#748a9d" stroke-linecap="round" stroke-linejoin="round" stroke-width="1"/>
    <path id="path-3" data-name="path" d="M467.048,553.5H462.5v2.951h5" transform="translate(-440.5 -546.5)" fill="none" stroke="#748a9d" stroke-linecap="round" stroke-linejoin="round" stroke-width="1"/>
    <line id="line-3" data-name="line" y2="7" transform="translate(19 4)" fill="none" stroke="#748a9d" stroke-linecap="round" stroke-linejoin="round" stroke-width="1"/>
  </g>
</svg>
