<svg xmlns="http://www.w3.org/2000/svg" width="30.814" height="31.532" viewBox="0 0 30.814 31.532">
  <g id="bulb-icon" transform="translate(-537.007 -637.486)">
    <path id="path" d="M550.181,660.911a8.465,8.465,0,1,1,4.488-.006" fill="none" stroke="#7bed8d" stroke-linecap="round" stroke-linejoin="round" stroke-width="1"/>
    <path id="path-2" data-name="path" d="M546.515,658.8a8.441,8.441,0,0,1,2.585,6.089" fill="none" stroke="#7bed8d" stroke-linecap="round" stroke-linejoin="round" stroke-width="1"/>
    <path id="path-3" data-name="path" d="M558.312,658.8a8.444,8.444,0,0,0-2.584,6.089" fill="none" stroke="#7bed8d" stroke-linecap="round" stroke-linejoin="round" stroke-width="1"/>
    <path id="path-4" data-name="path" d="M555.728,664.891v1.61a2.017,2.017,0,0,1-2.017,2.017h-2.595A2.016,2.016,0,0,1,549.1,666.5v-1.61" fill="none" stroke="#7bed8d" stroke-linecap="round" stroke-linejoin="round" stroke-width="1"/>
    <path id="path-5" data-name="path" d="M546.871,652.594a5.494,5.494,0,0,1,5.494-5.494" fill="none" stroke="#7bed8d" stroke-linecap="round" stroke-linejoin="round" stroke-width="1"/>
    <line id="line" x2="2.467" transform="translate(551.131 665.448)" fill="none" stroke="#7bed8d" stroke-linecap="round" stroke-linejoin="round" stroke-width="1"/>
    <line id="line-2" data-name="line" y2="3.15" transform="translate(551.722 637.986)" fill="none" stroke="#7bed8d" stroke-linecap="round" stroke-linejoin="round" stroke-width="1"/>
    <line id="line-3" data-name="line" x1="3.15" transform="translate(564.171 653.585)" fill="none" stroke="#7bed8d" stroke-linecap="round" stroke-linejoin="round" stroke-width="1"/>
    <line id="line-4" data-name="line" x1="3.15" transform="translate(537.507 653.585)" fill="none" stroke="#7bed8d" stroke-linecap="round" stroke-linejoin="round" stroke-width="1"/>
    <line id="line-5" data-name="line" x1="2.014" y2="2.014" transform="translate(560.474 642.819)" fill="none" stroke="#7bed8d" stroke-linecap="round" stroke-linejoin="round" stroke-width="1"/>
    <line id="line-6" data-name="line" x1="2.014" y1="2.014" transform="translate(541.881 642.819)" fill="none" stroke="#7bed8d" stroke-linecap="round" stroke-linejoin="round" stroke-width="1"/>
  </g>
</svg>
