<svg xmlns="http://www.w3.org/2000/svg" width="22.752" height="22.752" viewBox="0 0 22.752 22.752">
  <g id="icon-settings" transform="translate(0.5 0.5)">
    <circle id="ellipse" cx="4.045" cy="4.045" r="4.045" transform="translate(6.831 6.831)" fill="none" stroke="#748a9d" stroke-linecap="round" stroke-linejoin="round" stroke-width="1"/>
    <path id="path" d="M306.891,768.564v-1.891a.857.857,0,0,0-.857-.857h-1.016a.863.863,0,0,1-.834-.6,8.449,8.449,0,0,0-.983-2.154.843.843,0,0,1,.128-1.045h0a.858.858,0,0,0,0-1.212l-.5-.5a.856.856,0,0,0-1.212,0h0a.842.842,0,0,1-1.044.127,8.42,8.42,0,0,0-2.155-.982.863.863,0,0,1-.6-.835V757.6a.857.857,0,0,0-.856-.857h-1.892a.857.857,0,0,0-.856.857v1.016a.861.861,0,0,1-.6.834,8.458,8.458,0,0,0-2.155.983.842.842,0,0,1-1.044-.127h0a.856.856,0,0,0-1.212,0l-.5.5a.858.858,0,0,0,0,1.212h0a.843.843,0,0,1,.128,1.045,8.449,8.449,0,0,0-.983,2.154.863.863,0,0,1-.834.6H286a.857.857,0,0,0-.857.857v1.891a.857.857,0,0,0,.857.857h1.016a.862.862,0,0,1,.834.6,8.465,8.465,0,0,0,.983,2.154.843.843,0,0,1-.128,1.045h0a.857.857,0,0,0,0,1.211l.5.5a.857.857,0,0,0,1.212,0h0a.842.842,0,0,1,1.044-.128,8.456,8.456,0,0,0,2.155.983.863.863,0,0,1,.6.834v1.016a.856.856,0,0,0,.856.857h1.892a.856.856,0,0,0,.856-.857v-1.016a.863.863,0,0,1,.6-.834,8.456,8.456,0,0,0,2.155-.983.842.842,0,0,1,1.044.128h0a.858.858,0,0,0,1.212,0l.5-.5a.857.857,0,0,0,0-1.211h0a.843.843,0,0,1-.128-1.045,8.465,8.465,0,0,0,.983-2.154.862.862,0,0,1,.834-.6h1.016A.857.857,0,0,0,306.891,768.564Z" transform="translate(-285.139 -756.742)" fill="none" stroke="#748a9d" stroke-linecap="round" stroke-linejoin="round" stroke-width="1"/>
  </g>
</svg>
