<svg xmlns="http://www.w3.org/2000/svg" width="48.043" height="48.043" viewBox="0 0 48.043 48.043">
  <g id="icon-colour-avocado" transform="translate(2 2)">
    <g id="path" transform="translate(-1450.309 103.661)" fill="#ebf268" stroke-linejoin="round">
      <path d="M 1466.756958007812 -58.61874771118164 C 1464.491455078125 -58.61874771118164 1462.282592773438 -59.04859924316406 1460.192016601562 -59.89635848999023 C 1458.027099609375 -60.77426910400391 1456.085083007812 -62.063720703125 1454.419799804688 -63.72888946533203 C 1452.754516601562 -65.39401245117188 1451.46484375 -67.33605194091797 1450.586791992188 -69.50100708007812 C 1449.738891601562 -71.59160614013672 1449.308959960938 -73.80039215087891 1449.308959960938 -76.06600189208984 C 1449.308959960938 -78.33161163330078 1449.738891601562 -80.54039001464844 1450.586791992188 -82.63098907470703 C 1451.46484375 -84.79595184326172 1452.754516601562 -86.73799133300781 1454.419921875 -88.40316009521484 C 1456.102172851562 -90.08615875244141 1458.12060546875 -91.40896606445312 1460.326416015625 -92.28379821777344 L 1460.25927734375 -92.34864044189453 L 1461.917724609375 -92.82979583740234 C 1463.801025390625 -93.37327575683594 1465.574462890625 -94.21244812011719 1467.188842773438 -95.32402038574219 C 1468.803466796875 -96.43576049804688 1470.220092773438 -97.793212890625 1471.399291992188 -99.35865020751953 L 1472.128173828125 -100.3264083862305 L 1472.16796875 -100.2823181152344 C 1472.31787109375 -100.4509582519531 1472.467163085938 -100.6093902587891 1472.619018554688 -100.7611770629883 C 1475.134155273438 -103.2763061523438 1478.478149414062 -104.6614990234375 1482.03515625 -104.6614990234375 C 1485.592041015625 -104.6614990234375 1488.936279296875 -103.2763366699219 1491.452026367188 -100.7611770629883 C 1493.967407226562 -98.24584197998047 1495.3525390625 -94.901611328125 1495.352416992188 -91.34445953369141 C 1495.352294921875 -87.78720092773438 1493.966796875 -84.44297027587891 1491.451049804688 -81.92781829833984 C 1491.27587890625 -81.752685546875 1491.088989257812 -81.57840728759766 1490.88818359375 -81.40315246582031 L 1490.921630859375 -81.36602783203125 L 1490.048828125 -80.70832824707031 C 1488.483642578125 -79.52906799316406 1487.12646484375 -78.11261749267578 1486.014770507812 -76.49832916259766 C 1484.903076171875 -74.88410949707031 1484.063598632812 -73.11074829101562 1483.519653320312 -71.22750091552734 L 1483.042724609375 -69.57633972167969 L 1482.977172851562 -69.6435546875 C 1482.103393554688 -67.43560791015625 1480.77978515625 -65.41452026367188 1479.093994140625 -63.72887802124023 C 1477.428955078125 -62.063720703125 1475.486938476562 -60.77426910400391 1473.321899414062 -59.89635848999023 C 1471.231323242188 -59.04859924316406 1469.022583007812 -58.61874771118164 1466.756958007812 -58.61874771118164 Z" stroke="none"/>
      <path d="M 1466.756958007812 -59.61874771118164 C 1470.966186523438 -59.61874771118164 1475.175415039062 -61.2244987487793 1478.386962890625 -64.43599700927734 C 1480.426025390625 -66.47499847412109 1481.81298828125 -68.91799926757812 1482.557006835938 -71.50699615478516 L 1482.558959960938 -71.50499725341797 C 1483.712036132812 -75.49700164794922 1486.129028320312 -79.00699615478516 1489.447021484375 -81.50699615478516 L 1489.43798828125 -81.51699829101562 C 1489.890991210938 -81.85800170898438 1490.33203125 -82.22299957275391 1490.744018554688 -82.63500213623047 C 1495.555053710938 -87.44499969482422 1495.555053710938 -95.24399566650391 1490.744995117188 -100.0540008544922 C 1488.339477539062 -102.4589996337891 1485.187255859375 -103.6614990234375 1482.03515625 -103.6614990234375 C 1478.883056640625 -103.6614990234375 1475.731079101562 -102.4589996337891 1473.326049804688 -100.0540008544922 C 1472.912963867188 -99.64099884033203 1472.548950195312 -99.19999694824219 1472.20703125 -98.74700164794922 L 1472.197998046875 -98.75699615478516 C 1469.697998046875 -95.43799591064453 1466.18701171875 -93.02099609375 1462.194946289062 -91.86899566650391 L 1462.197021484375 -91.86699676513672 C 1459.609008789062 -91.12200164794922 1457.166015625 -89.73600006103516 1455.126953125 -87.69599914550781 C 1448.703002929688 -81.27300262451172 1448.703002929688 -70.85900115966797 1455.126953125 -64.43599700927734 C 1458.338500976562 -61.2244987487793 1462.547729492188 -59.61874771118164 1466.756958007812 -59.61874771118164 M 1466.756958007812 -57.61874771118164 C 1464.361938476562 -57.61874771118164 1462.02685546875 -58.07326126098633 1459.816284179688 -58.96965026855469 C 1457.526611328125 -59.89812850952148 1455.47314453125 -61.26145935058594 1453.712768554688 -63.02177810668945 C 1451.952270507812 -64.78199768066406 1450.588745117188 -66.83551025390625 1449.66015625 -69.12516784667969 C 1448.763549804688 -71.33571624755859 1448.308959960938 -73.67095184326172 1448.308959960938 -76.06600189208984 C 1448.308959960938 -78.46105194091797 1448.763549804688 -80.79627990722656 1449.66015625 -83.00682830810547 C 1450.588745117188 -85.29648590087891 1451.952270507812 -87.34999847412109 1453.712890625 -89.11032104492188 C 1455.886596679688 -91.28511047363281 1458.591552734375 -92.89111328125 1461.54052734375 -93.75890350341797 C 1461.573486328125 -93.77030181884766 1461.606689453125 -93.78086853027344 1461.640380859375 -93.79058837890625 C 1463.420166015625 -94.30419158935547 1465.09619140625 -95.09722137451172 1466.621826171875 -96.14765930175781 C 1468.147583007812 -97.1982421875 1469.486206054688 -98.48101043701172 1470.600463867188 -99.96031188964844 C 1470.64990234375 -100.0258712768555 1470.702880859375 -100.0879364013672 1470.75927734375 -100.1462783813477 C 1471.154541015625 -100.6569061279297 1471.524536132812 -101.0809555053711 1471.911987304688 -101.4683456420898 C 1474.615844726562 -104.1722869873047 1478.211059570312 -105.6614990234375 1482.03515625 -105.6614990234375 C 1485.859008789062 -105.6614990234375 1489.454467773438 -104.1723480224609 1492.159057617188 -101.4683685302734 C 1494.863403320312 -98.76406860351562 1496.3525390625 -95.168701171875 1496.352416992188 -91.34442138671875 C 1496.352294921875 -87.52002716064453 1494.862670898438 -83.92465972900391 1492.158081054688 -81.22062683105469 C 1491.7734375 -80.83592987060547 1491.33935546875 -80.45745086669922 1490.836303710938 -80.06829833984375 C 1490.777954101562 -80.01197814941406 1490.716064453125 -79.95899200439453 1490.650512695312 -79.90966033935547 C 1489.171508789062 -78.79524993896484 1487.888916015625 -77.45668792724609 1486.83837890625 -75.93115997314453 C 1485.787841796875 -74.40566253662109 1484.994506835938 -72.72975921630859 1484.48046875 -70.94998931884766 C 1484.470947265625 -70.91716766357422 1484.460693359375 -70.88475036621094 1484.449584960938 -70.85267639160156 C 1483.583618164062 -67.90406036376953 1481.977905273438 -65.19840240478516 1479.801147460938 -63.02175903320312 C 1478.040893554688 -61.26147079467773 1475.987426757812 -59.89813995361328 1473.69775390625 -58.96965026855469 C 1471.487182617188 -58.07326126098633 1469.151977539062 -57.61874771118164 1466.756958007812 -57.61874771118164 Z" stroke="none" fill="#dbd453"/>
    </g>
    <g id="ellipse" transform="translate(8.99 20.138)" fill="#d3a267" stroke="#bc854a" stroke-linejoin="round" stroke-width="2">
      <circle cx="7.458" cy="7.458" r="7.458" stroke="none"/>
      <circle cx="7.458" cy="7.458" r="8.458" fill="none"/>
    </g>
    <path id="path-2" data-name="path" d="M1487.448-98.129a7.573,7.573,0,0,0-10.715,0" transform="translate(-1450.309 103.661)" fill="none" stroke="#dbd453" stroke-linecap="round" stroke-linejoin="round" stroke-width="2"/>
  </g>
</svg>
