<svg xmlns="http://www.w3.org/2000/svg" width="45.182" height="49.291" viewBox="0 0 45.182 49.291">
  <g id="icon-colour-apple" transform="translate(2 1)">
    <g id="path" transform="translate(-1007.376 27.971)" fill="#f45b5b" stroke-linejoin="round">
      <path d="M 1033.76171875 19.31955146789551 C 1032.553833007812 19.31954193115234 1031.259399414062 19.09410095214844 1029.914184570312 18.64948081970215 C 1029.28173828125 18.44097137451172 1028.626220703125 18.33512115478516 1027.96630859375 18.33512115478516 C 1027.306762695312 18.33512115478516 1026.652099609375 18.4409008026123 1026.020751953125 18.64952087402344 C 1024.675659179688 19.0941104888916 1023.381164550781 19.31955146789551 1022.173217773438 19.31955146789551 C 1022.095275878906 19.31955146789551 1022.017211914062 19.31861114501953 1021.939453125 19.31670188903809 C 1019.389953613281 19.25532150268555 1017.037475585938 18.50048065185547 1014.947875976562 17.07316207885742 C 1013.095153808594 15.80767154693604 1011.474548339844 14.0326509475708 1010.131042480469 11.79741096496582 C 1008.933349609375 9.804851531982422 1007.993713378906 7.518290996551514 1007.338073730469 5.001281261444092 C 1006.738220214844 2.698201179504395 1006.40625 0.2731611430644989 1006.378051757812 -2.011668920516968 C 1006.345947265625 -4.605438709259033 1006.776306152344 -7.262289047241211 1007.62255859375 -9.694938659667969 C 1008.529052734375 -12.30068874359131 1009.898559570312 -14.57944869995117 1011.5830078125 -16.28488922119141 C 1012.741149902344 -17.45743942260742 1014.049377441406 -18.36889839172363 1015.471374511719 -18.99394798278809 C 1017.000793457031 -19.66619873046875 1018.663391113281 -20.0070686340332 1020.412963867188 -20.0070686340332 C 1020.92626953125 -20.0070686340332 1021.454467773438 -19.97740936279297 1021.982971191406 -19.9189281463623 C 1023.349792480469 -19.76775932312012 1024.705810546875 -19.4497184753418 1026.01318359375 -18.9736385345459 C 1026.64892578125 -18.74192810058594 1027.306274414062 -18.62449836730957 1027.967529296875 -18.62449836730957 C 1028.628662109375 -18.62449836730957 1029.2861328125 -18.74192810058594 1029.921630859375 -18.97353935241699 C 1031.229125976562 -19.44969940185547 1032.585083007812 -19.76774978637695 1033.952026367188 -19.9189395904541 C 1034.48046875 -19.97740936279297 1035.0087890625 -20.0070686340332 1035.52197265625 -20.0070686340332 C 1037.271484375 -20.0070686340332 1038.933959960938 -19.66617965698242 1040.463256835938 -18.99388885498047 C 1041.885131835938 -18.36880874633789 1043.193359375 -17.45731925964355 1044.3515625 -16.28474807739258 C 1046.036010742188 -14.57924842834473 1047.405639648438 -12.30045890808105 1048.312255859375 -9.694758415222168 C 1049.15869140625 -7.262008666992188 1049.588989257812 -4.605218887329102 1049.556884765625 -2.011618852615356 C 1049.52880859375 0.2731411457061768 1049.19677734375 2.698191165924072 1048.596923828125 5.001281261444092 C 1047.941284179688 7.518290996551514 1047.001586914062 9.804841041564941 1045.803955078125 11.7974214553833 C 1044.46044921875 14.03266143798828 1042.83984375 15.80767154693604 1040.987060546875 17.07316207885742 C 1038.8974609375 18.50048065185547 1036.545043945312 19.25532150268555 1033.994995117188 19.31671142578125 C 1033.917602539062 19.31861114501953 1033.839721679688 19.31955146789551 1033.76171875 19.31955146789551 Z" stroke="none"/>
      <path d="M 1020.4130859375 -19.00706672668457 C 1011.68359375 -19.00706672668457 1007.2802734375 -9.914966583251953 1007.3779296875 -2.024000644683838 C 1007.484008789062 6.576999664306641 1012.036987304688 18.07799911499023 1021.963989257812 18.3169994354248 C 1022.033569335938 18.3187084197998 1022.103515625 18.31955146789551 1022.173217773438 18.31955146789551 C 1023.368896484375 18.31955146789551 1024.580688476562 18.07228469848633 1025.70703125 17.69999885559082 C 1026.443603515625 17.4566478729248 1027.205078125 17.33514785766602 1027.96630859375 17.33512496948242 C 1028.728515625 17.3351001739502 1029.490600585938 17.45685005187988 1030.22802734375 17.69999885559082 C 1031.354248046875 18.0722599029541 1032.566162109375 18.31955146789551 1033.76171875 18.31955146789551 C 1033.83154296875 18.31955146789551 1033.901245117188 18.31871032714844 1033.970947265625 18.3169994354248 C 1043.89794921875 18.07799911499023 1048.451049804688 6.576999664306641 1048.557006835938 -2.024000644683838 C 1048.65478515625 -9.914458274841309 1044.250244140625 -19.00681686401367 1035.52197265625 -19.00706672668457 C 1035.047973632812 -19.007080078125 1034.5615234375 -18.98027420043945 1034.06201171875 -18.92500114440918 C 1032.760009765625 -18.7810001373291 1031.474975585938 -18.47500038146973 1030.264038085938 -18.03400039672852 C 1029.515014648438 -17.76100158691406 1028.7412109375 -17.6245002746582 1027.967529296875 -17.6245002746582 C 1027.193725585938 -17.6245002746582 1026.420043945312 -17.76100158691406 1025.671020507812 -18.03400039672852 C 1024.4599609375 -18.47500038146973 1023.175048828125 -18.7810001373291 1021.873046875 -18.92500114440918 C 1021.374145507812 -18.98020935058594 1020.886596679688 -19.00706672668457 1020.4130859375 -19.00706672668457 M 1020.4130859375 -21.00707054138184 C 1020.962890625 -21.00707054138184 1021.528076171875 -20.97537994384766 1022.093017578125 -20.91287040710449 C 1023.538940429688 -20.75295066833496 1024.973022460938 -20.4166316986084 1026.355346679688 -19.91328048706055 C 1026.881225585938 -19.72159004211426 1027.423461914062 -19.6245002746582 1027.967529296875 -19.6245002746582 C 1028.511474609375 -19.6245002746582 1029.053833007812 -19.72159004211426 1029.579223632812 -19.9130802154541 C 1030.961791992188 -20.41660118103027 1032.395874023438 -20.75292015075684 1033.842163085938 -20.91287994384766 C 1034.406982421875 -20.97537994384766 1034.97216796875 -21.00707054138184 1035.521728515625 -21.00707054138184 C 1039.166625976562 -21.00697135925293 1042.4658203125 -19.61692047119141 1045.063232421875 -16.98720169067383 C 1046.8515625 -15.17654037475586 1048.301513671875 -12.76844120025635 1049.256713867188 -10.0232105255127 C 1050.140869140625 -7.482160568237305 1050.59033203125 -4.707520484924316 1050.556884765625 -1.999240756034851 C 1050.527709960938 0.3651692867279053 1050.1845703125 2.873109340667725 1049.564697265625 5.253339290618896 C 1048.885009765625 7.86293888092041 1047.907958984375 10.23800945281982 1046.6611328125 12.31258964538574 C 1045.242797851562 14.672119140625 1043.523559570312 16.5516300201416 1041.551147460938 17.8989086151123 C 1039.299438476562 19.43693923950195 1036.765258789062 20.25029945373535 1034.01904296875 20.31641960144043 C 1033.933959960938 20.31851005554199 1033.847900390625 20.31954956054688 1033.76171875 20.31954956054688 C 1032.447021484375 20.31954956054688 1031.046997070312 20.07710838317871 1029.600341796875 19.59895896911621 C 1029.06982421875 19.42402839660645 1028.519653320312 19.33510971069336 1027.966430664062 19.33511924743652 C 1027.413452148438 19.33513832092285 1026.864379882812 19.4239387512207 1026.33447265625 19.59903907775879 C 1024.888061523438 20.07710838317871 1023.487915039062 20.31954956054688 1022.173217773438 20.31954956054688 C 1022.087036132812 20.31954956054688 1022.000854492188 20.31851005554199 1021.914916992188 20.31639862060547 C 1019.169677734375 20.25029945373535 1016.635498046875 19.43693923950195 1014.3837890625 17.8989086151123 C 1012.411376953125 16.5516300201416 1010.692138671875 14.672119140625 1009.27392578125 12.31257915496826 C 1008.026977539062 10.23801898956299 1007.050048828125 7.862949371337891 1006.370361328125 5.253349304199219 C 1005.750366210938 2.873139381408691 1005.4072265625 0.3651993274688721 1005.378051757812 -1.999330759048462 C 1005.344604492188 -4.707780838012695 1005.794067382812 -7.48253059387207 1006.678100585938 -10.02351093292236 C 1007.633178710938 -12.76887035369873 1009.083251953125 -15.17701053619385 1010.87158203125 -16.98760986328125 C 1013.46875 -19.61716079711914 1016.768188476562 -21.00707054138184 1020.4130859375 -21.00707054138184 Z" stroke="none" fill="#e24949"/>
    </g>
    <path id="path-2" data-name="path" d="M1018.222-14.616s-5.78,2.117-6.523,9.685" transform="translate(-1007.376 27.971)" fill="#f45b5b" stroke="#e24949" stroke-linecap="round" stroke-linejoin="round" stroke-width="2"/>
    <path id="path-3" data-name="path" d="M1027.967-18.715a9.251,9.251,0,0,0-9.256-9.256" transform="translate(-1007.376 27.971)" fill="none" stroke="#aad353" stroke-linecap="round" stroke-linejoin="round" stroke-width="2"/>
    <path id="path-4" data-name="path" d="M1037.224-27.971a9.251,9.251,0,0,1-9.257,9.256A9.251,9.251,0,0,1,1037.224-27.971Z" transform="translate(-1007.376 27.971)" fill="#bfe563" stroke="#aad353" stroke-linecap="round" stroke-linejoin="round" stroke-width="2"/>
  </g>
</svg>
