<svg xmlns="http://www.w3.org/2000/svg" width="65.433" height="65.433" viewBox="0 0 65.433 65.433">
  <g id="icon-colour-pear" transform="translate(2.828 1.414)">
    <path id="path" d="M1192.628-25.465a8.95,8.95,0,0,0-8.955-8.955" transform="translate(-812.796 -812.645) rotate(45)" fill="none" stroke="#aad353" stroke-linecap="round" stroke-linejoin="round" stroke-width="2"/>
    <path id="path-2" data-name="path" d="M1201.583-34.42a8.95,8.95,0,0,1-8.955,8.955A8.95,8.95,0,0,1,1201.583-34.42Z" transform="translate(-812.796 -812.645) rotate(45)" fill="#bfe563" stroke="#aad353" stroke-linecap="round" stroke-linejoin="round" stroke-width="2"/>
    <g id="path-3" data-name="path" transform="translate(-812.796 -812.645) rotate(45)" fill="#ebf268" stroke-linejoin="round">
      <path d="M 1192.628051757812 27.71299934387207 C 1190.273071289062 27.71299934387207 1187.987915039062 27.25155067443848 1185.836181640625 26.34145927429199 C 1183.75830078125 25.4626407623291 1181.892456054688 24.20475959777832 1180.290405273438 22.60273933410645 C 1178.688354492188 21.0007495880127 1177.430419921875 19.13499069213867 1176.551635742188 17.05731010437012 C 1175.641479492188 14.90573024749756 1175.180053710938 12.62080001831055 1175.180053710938 10.26599979400635 C 1175.180053710938 7.874955654144287 1175.67626953125 5.50244140625 1176.625366210938 3.317000150680542 L 1176.536865234375 3.317000150680542 L 1177.3525390625 1.833780169487 C 1178.2998046875 0.1175901517271996 1178.960327148438 -1.729949831962585 1179.315795898438 -3.657509803771973 C 1179.67138671875 -5.585119724273682 1179.71337890625 -7.546740055084229 1179.440795898438 -9.487899780273438 L 1179.28076171875 -10.6269998550415 L 1179.33447265625 -10.6269998550415 C 1179.318725585938 -10.87307739257812 1179.31103515625 -11.10909080505371 1179.31103515625 -11.34099960327148 C 1179.31103515625 -14.89834976196289 1180.696166992188 -18.24260902404785 1183.211303710938 -20.75773048400879 C 1185.726440429688 -23.27285957336426 1189.070678710938 -24.65799903869629 1192.628051757812 -24.65799903869629 C 1196.18505859375 -24.65799903869629 1199.529052734375 -23.27285957336426 1202.044311523438 -20.75774955749512 C 1204.559692382812 -18.24250984191895 1205.944946289062 -14.89824962615967 1205.944946289062 -11.34099960327148 C 1205.944946289062 -11.10909080505371 1205.937255859375 -10.87307739257812 1205.921508789062 -10.6269998550415 L 1205.975219726562 -10.6269998550415 L 1205.815185546875 -9.487899780273438 C 1205.54248046875 -7.546350002288818 1205.58447265625 -5.584709644317627 1205.939819335938 -3.657459735870361 C 1206.295288085938 -1.729659795761108 1206.955932617188 0.1178001537919044 1207.9033203125 1.833600163459778 L 1208.722534179688 3.317000150680542 L 1208.630615234375 3.317000150680542 C 1209.579711914062 5.502515316009521 1210.076049804688 7.875069141387939 1210.076049804688 10.26599979400635 C 1210.076049804688 12.62080001831055 1209.614624023438 14.90573024749756 1208.704467773438 17.05731010437012 C 1207.82568359375 19.13499069213867 1206.567749023438 21.0007495880127 1204.965576171875 22.60275077819824 C 1203.363525390625 24.20475959777832 1201.497680664062 25.4626407623291 1199.419921875 26.34145927429199 C 1197.268188476562 27.25155067443848 1194.983032226562 27.71299934387207 1192.628051757812 27.71299934387207 Z" stroke="none"/>
      <path d="M 1192.628051757812 26.71299934387207 C 1201.712036132812 26.71299934387207 1209.076049804688 19.34900093078613 1209.076049804688 10.26599979400635 C 1209.076049804688 7.38100004196167 1208.328979492188 4.674000263214111 1207.025024414062 2.317000150680542 L 1207.027954101562 2.317000150680542 C 1205.01904296875 -1.32099986076355 1204.246948242188 -5.51200008392334 1204.824951171875 -9.626999855041504 L 1204.81201171875 -9.626999855041504 C 1204.890014648438 -10.1879997253418 1204.944946289062 -10.75799942016602 1204.944946289062 -11.34099960327148 C 1204.944946289062 -18.14399909973145 1199.430053710938 -23.65799903869629 1192.628051757812 -23.65799903869629 C 1185.824951171875 -23.65799903869629 1180.31103515625 -18.14399909973145 1180.31103515625 -11.34099960327148 C 1180.31103515625 -10.75799942016602 1180.365966796875 -10.1879997253418 1180.443969726562 -9.626999855041504 L 1180.431030273438 -9.626999855041504 C 1181.009033203125 -5.51200008392334 1180.235961914062 -1.32099986076355 1178.22802734375 2.317000150680542 L 1178.23095703125 2.317000150680542 C 1176.927001953125 4.674000263214111 1176.180053710938 7.38100004196167 1176.180053710938 10.26599979400635 C 1176.180053710938 19.34900093078613 1183.5439453125 26.71299934387207 1192.628051757812 26.71299934387207 M 1192.628051757812 28.71299934387207 C 1190.138427734375 28.71299934387207 1187.722290039062 28.2249698638916 1185.446655273438 27.26247024536133 C 1183.249633789062 26.3332405090332 1181.27685546875 25.00338935852051 1179.583374023438 23.30986022949219 C 1177.889770507812 21.61635971069336 1176.559814453125 19.64376068115234 1175.630615234375 17.44688034057617 C 1174.668090820312 15.17136001586914 1174.180053710938 12.75537014007568 1174.180053710938 10.26599979400635 C 1174.180053710938 7.189458847045898 1174.957153320312 4.141647815704346 1176.428466796875 1.444223642349243 C 1176.44384765625 1.412695169448853 1176.4599609375 1.381464004516602 1176.47705078125 1.350570201873779 C 1177.372192382812 -0.2712998390197754 1177.996459960938 -2.017289876937866 1178.332397460938 -3.838899850845337 C 1178.66845703125 -5.660539627075195 1178.708129882812 -7.514339923858643 1178.450439453125 -9.348810195922852 C 1178.439208984375 -9.428979873657227 1178.432861328125 -9.509233474731445 1178.431396484375 -9.589258193969727 C 1178.349487304688 -10.23363018035889 1178.31103515625 -10.79557800292969 1178.31103515625 -11.34099960327148 C 1178.31103515625 -15.16545963287354 1179.800170898438 -18.76084899902344 1182.504150390625 -21.46483993530273 C 1185.208129882812 -24.1688404083252 1188.803588867188 -25.65799903869629 1192.628051757812 -25.65799903869629 C 1196.4521484375 -25.65799903869629 1200.04736328125 -24.16884994506836 1202.75146484375 -21.46487045288086 C 1205.455688476562 -18.7607593536377 1206.944946289062 -15.16536998748779 1206.944946289062 -11.34099960327148 C 1206.944946289062 -10.79557800292969 1206.906494140625 -10.23363018035889 1206.824584960938 -9.589258193969727 C 1206.823120117188 -9.509233474731445 1206.816772460938 -9.428979873657227 1206.805541992188 -9.348810195922852 C 1206.547729492188 -7.513929843902588 1206.58740234375 -5.660099983215332 1206.923217773438 -3.838789939880371 C 1207.259155273438 -2.017029762268066 1207.883422851562 -0.2711998522281647 1208.77880859375 1.350200176239014 C 1208.7958984375 1.381283521652222 1208.812133789062 1.412709593772888 1208.82763671875 1.444435596466064 C 1210.298828125 4.141871452331543 1211.076049804688 7.189786911010742 1211.076049804688 10.26599979400635 C 1211.076049804688 12.75537014007568 1210.588012695312 15.17137050628662 1209.62548828125 17.44688987731934 C 1208.696166992188 19.64376068115234 1207.366333007812 21.61635971069336 1205.672729492188 23.30986976623535 C 1203.979125976562 25.00338935852051 1202.006469726562 26.3332405090332 1199.809448242188 27.26247024536133 C 1197.533813476562 28.2249698638916 1195.11767578125 28.71299934387207 1192.628051757812 28.71299934387207 Z" stroke="none" fill="#dbd453"/>
    </g>
    <path id="path-4" data-name="path" d="M1191.939-19.177a7.573,7.573,0,0,0-7.577,7.577" transform="translate(-812.796 -812.645) rotate(45)" fill="none" stroke="#dbd453" stroke-linecap="round" stroke-linejoin="round" stroke-width="2"/>
  </g>
</svg>
