<svg xmlns="http://www.w3.org/2000/svg" width="40.171" height="40.175" viewBox="0 0 40.171 40.175">
  <g id="icon-lemon" transform="translate(1.995 2)">
    <g id="path" transform="translate(-1071.376 98.129)" fill="#f0f4f8" stroke-linejoin="round">
      <path d="M 1074.755615234375 -60.95380020141602 C 1073.20703125 -60.95380020141602 1071.796630859375 -61.75928115844727 1070.982666015625 -63.10847091674805 C 1070.20166015625 -64.40297698974609 1070.17626953125 -66.09694671630859 1070.918212890625 -67.42397308349609 C 1071.137817382812 -67.81745910644531 1071.409301757812 -68.17105102539062 1071.724487304688 -68.47447967529297 C 1072.2197265625 -68.95034027099609 1072.371704101562 -69.58625793457031 1072.131713867188 -70.17613983154297 C 1069.411499023438 -76.85083770751953 1071.720703125 -85.47196197509766 1077.8779296875 -91.62816619873047 C 1082.243408203125 -95.99434661865234 1087.889770507812 -98.49855041503906 1093.369262695312 -98.49855041503906 C 1095.493530273438 -98.49855041503906 1097.499145507812 -98.12021636962891 1099.330322265625 -97.37406921386719 C 1099.5107421875 -97.30068206787109 1099.697631835938 -97.26336669921875 1099.885498046875 -97.26338195800781 C 1100.3037109375 -97.26338958740234 1100.710571289062 -97.44699859619141 1101.031372070312 -97.78038024902344 C 1101.3359375 -98.09691619873047 1101.689575195312 -98.36866760253906 1102.082275390625 -98.58804321289062 C 1102.716064453125 -98.94206237792969 1103.443481445312 -99.12918853759766 1104.18603515625 -99.12918853759766 C 1104.975830078125 -99.12918853759766 1105.740844726562 -98.91915893554688 1106.398315429688 -98.52181243896484 C 1107.581787109375 -97.80812072753906 1108.355224609375 -96.62702178955078 1108.51953125 -95.28188323974609 C 1108.683715820312 -93.93702697753906 1108.229125976562 -92.6165771484375 1107.272216796875 -91.65911865234375 L 1107.267700195312 -91.65457153320312 L 1107.26318359375 -91.65009307861328 C 1106.761352539062 -91.16078186035156 1106.611083984375 -90.40068817138672 1106.880126953125 -89.71366119384766 C 1107.51318359375 -88.09494781494141 1107.863403320312 -86.33653259277344 1107.921264648438 -84.48680114746094 C 1107.97802734375 -82.67173767089844 1107.752319335938 -80.80513000488281 1107.25048828125 -78.93881988525391 C 1106.21533203125 -75.08959197998047 1104.074462890625 -71.46119689941406 1101.059204101562 -68.44589233398438 C 1096.692993164062 -64.07972717285156 1091.046630859375 -61.57563018798828 1085.56787109375 -61.57563018798828 C 1085.567504882812 -61.57563018798828 1085.567260742188 -61.57563018798828 1085.56689453125 -61.57563018798828 C 1083.515869140625 -61.57572937011719 1081.573120117188 -61.92903900146484 1079.792602539062 -62.62575149536133 C 1079.567993164062 -62.71368789672852 1079.334838867188 -62.75822830200195 1079.09912109375 -62.75822830200195 C 1078.621704101562 -62.75822830200195 1078.179565429688 -62.57487106323242 1077.854125976562 -62.24193954467773 L 1077.85009765625 -62.23788833618164 L 1077.84619140625 -62.23387908935547 C 1077.020629882812 -61.40840911865234 1075.923095703125 -60.95380020141602 1074.755615234375 -60.95380020141602 Z" stroke="none"/>
      <path d="M 1074.755615234375 -61.95379638671875 C 1075.618408203125 -61.95379638671875 1076.48095703125 -62.28287506103516 1077.139038085938 -62.94099807739258 C 1077.666748046875 -63.48074722290039 1078.374267578125 -63.75822448730469 1079.09912109375 -63.75822448730469 C 1079.453979492188 -63.75822448730469 1079.812866210938 -63.69175720214844 1080.156982421875 -63.55699920654297 C 1081.836791992188 -62.89969253540039 1083.669555664062 -62.57572174072266 1085.567016601562 -62.57562637329102 C 1090.568603515625 -62.57537078857422 1096.024658203125 -64.82562255859375 1100.35205078125 -69.15299987792969 C 1106.321044921875 -75.12200164794922 1108.338012695312 -83.23999786376953 1105.948974609375 -89.3489990234375 C 1105.538940429688 -90.39599609375 1105.760009765625 -91.58100128173828 1106.56494140625 -92.36599731445312 C 1108.078979492188 -93.88099670410156 1107.850952148438 -96.47799682617188 1105.880981445312 -97.66600036621094 C 1105.36962890625 -97.97508239746094 1104.777954101562 -98.12919616699219 1104.18603515625 -98.12919616699219 C 1103.625 -98.12919616699219 1103.063842773438 -97.99088287353516 1102.569946289062 -97.71499633789062 C 1102.253051757812 -97.53800201416016 1101.98095703125 -97.32499694824219 1101.751953125 -97.08699798583984 C 1101.242553710938 -96.55759429931641 1100.574829101562 -96.26339721679688 1099.885620117188 -96.26338195800781 C 1099.574951171875 -96.26336669921875 1099.260009765625 -96.32311248779297 1098.953002929688 -96.447998046875 C 1097.225708007812 -97.15180206298828 1095.332275390625 -97.49855041503906 1093.369140625 -97.49855041503906 C 1088.367553710938 -97.49855041503906 1082.911743164062 -95.24851226806641 1078.5849609375 -90.92099761962891 C 1072.558959960938 -84.89599609375 1070.56103515625 -76.68000030517578 1073.057983398438 -70.55300140380859 C 1073.4599609375 -69.56500244140625 1073.18701171875 -68.49299621582031 1072.41796875 -67.75399780273438 C 1072.180053710938 -67.52500152587891 1071.968017578125 -67.25299835205078 1071.791015625 -66.93599700927734 C 1071.223022460938 -65.91999816894531 1071.238037109375 -64.62100219726562 1071.838989257812 -63.625 C 1072.511108398438 -62.51078033447266 1073.633544921875 -61.95379638671875 1074.755615234375 -61.95379638671875 M 1074.755615234375 -59.95380020141602 C 1072.853393554688 -59.95380020141602 1071.122924804688 -60.94002151489258 1070.12646484375 -62.59194946289062 C 1069.1630859375 -64.18855285644531 1069.131225585938 -66.27684783935547 1070.045288085938 -67.91194152832031 C 1070.312866210938 -68.39115142822266 1070.644653320312 -68.82311248779297 1071.031005859375 -69.19496917724609 C 1071.144653320312 -69.30410766601562 1071.316528320312 -69.52610778808594 1071.205444335938 -69.79927062988281 C 1070.500610351562 -71.5289306640625 1070.102416992188 -73.41108703613281 1070.022338867188 -75.39240264892578 C 1069.944580078125 -77.32048797607422 1070.169555664062 -79.30284881591797 1070.691284179688 -81.28440856933594 C 1071.760009765625 -85.34430694580078 1074.000610351562 -89.16565704345703 1077.1708984375 -92.3353271484375 C 1081.722412109375 -96.8875732421875 1087.62646484375 -99.49855041503906 1093.369262695312 -99.49855041503906 C 1095.62353515625 -99.49855041503906 1097.756103515625 -99.09535217285156 1099.707763671875 -98.30014038085938 C 1099.768188476562 -98.27552795410156 1099.82666015625 -98.26338195800781 1099.885498046875 -98.26338195800781 C 1100.029174804688 -98.26338195800781 1100.180297851562 -98.33808898925781 1100.310791015625 -98.47373962402344 C 1100.683715820312 -98.86138153076172 1101.11572265625 -99.19358825683594 1101.594604492188 -99.46109008789062 C 1102.377075195312 -99.89814758300781 1103.273193359375 -100.1291885375977 1104.18603515625 -100.1291885375977 C 1105.158203125 -100.1291885375977 1106.10205078125 -99.86930847167969 1106.91552734375 -99.37763214111328 C 1108.36328125 -98.50457763671875 1109.310302734375 -97.05554962158203 1109.512084960938 -95.40310668945312 C 1109.7138671875 -93.75096130371094 1109.1552734375 -92.12867736816406 1107.979614257812 -90.95223236083984 C 1107.973510742188 -90.9461669921875 1107.967407226562 -90.94014739990234 1107.961303710938 -90.93416595458984 C 1107.744750976562 -90.72294616699219 1107.687255859375 -90.39499664306641 1107.811279296875 -90.07830810546875 C 1108.486083984375 -88.35260009765625 1108.859252929688 -86.48216247558594 1108.920776367188 -84.51806640625 C 1108.980590820312 -82.60482025146484 1108.743530273438 -80.64031219482422 1108.216186523438 -78.67913055419922 C 1107.135620117188 -74.66092681884766 1104.9052734375 -70.87782287597656 1101.766235351562 -67.73879241943359 C 1097.213989257812 -63.18650054931641 1091.309936523438 -60.57563018798828 1085.56787109375 -60.57563018798828 C 1083.390747070312 -60.57572937011719 1081.325317382812 -60.95217895507812 1079.42822265625 -61.69449996948242 C 1079.320068359375 -61.73685836791992 1079.20947265625 -61.75822830200195 1079.09912109375 -61.75822830200195 C 1078.953369140625 -61.75822830200195 1078.7431640625 -61.72087097167969 1078.569213867188 -61.54288101196289 C 1078.563842773438 -61.53747940063477 1078.55859375 -61.53210830688477 1078.55322265625 -61.52676010131836 C 1077.538818359375 -60.51242065429688 1076.190185546875 -59.95380020141602 1074.755615234375 -59.95380020141602 Z" stroke="none" fill="#dbe2ed"/>
    </g>
    <path id="path-2" data-name="path" d="M1096.713-93.245c-3.818-1.386-8.653-.523-12.707,2.427" transform="translate(-1071.376 98.129)" fill="none" stroke="#dbe2ed" stroke-linecap="round" stroke-linejoin="round" stroke-width="2"/>
  </g>
</svg>
