<svg xmlns="http://www.w3.org/2000/svg" width="70.411" height="70.411" viewBox="0 0 70.411 70.411">
  <g id="icon-mono-pineapple" transform="translate(1.414 1.414)">
    <path id="path" d="M1090.076,62.534a12.625,12.625,0,0,0,0-17.864A12.623,12.623,0,0,0,1090.076,62.534Z" transform="translate(-678.507 -795.509) rotate(45)" fill="#4e5d6a" stroke="#3b4853" stroke-linejoin="round" stroke-width="2"/>
    <path id="path-2" data-name="path" d="M1096.682,68.589a14.4,14.4,0,0,1,7.805-18.827,14.407,14.407,0,0,0-14.09,11.366.326.326,0,0,1-.643,0,14.407,14.407,0,0,0-14.09-11.366,14.4,14.4,0,0,1,7.805,18.827l3.567,8.111h6.134Z" transform="translate(-678.507 -795.509) rotate(45)" fill="#4e5d6a" stroke="#3b4853" stroke-linejoin="round" stroke-width="2"/>
    <path id="path-3" data-name="path" d="M1080.63,82.469a20.594,20.594,0,0,0-11.16-26.919,20.594,20.594,0,0,1,20.606,20.6" transform="translate(-678.507 -795.509) rotate(45)" fill="#4e5d6a" stroke="#3b4853" stroke-linejoin="round" stroke-width="2"/>
    <path id="path-4" data-name="path" d="M1099.521,82.469a20.594,20.594,0,0,1,11.16-26.919,20.593,20.593,0,0,0-20.6,20.6" transform="translate(-678.507 -795.509) rotate(45)" fill="#4e5d6a" stroke="#3b4853" stroke-linejoin="round" stroke-width="2"/>
    <rect id="rectangle" width="33.281" height="41.091" rx="13.351" transform="translate(29.056 14.994) rotate(45)" fill="#4e5d6a" stroke="#3b4853" stroke-linejoin="round" stroke-width="2"/>
    <path id="path-5" data-name="path" d="M1073.435,92.466l.873.872,7.877,7.877,7.89,7.89,4.225,4.225" transform="translate(-678.507 -795.509) rotate(45)" fill="#f0f4f8" stroke="#3b4853" stroke-linejoin="round" stroke-width="2"/>
    <path id="path-6" data-name="path" d="M1104.3,107.55l-6.334-6.334-7.89-7.877-7.89-7.89-6.521-6.52" transform="translate(-678.507 -795.509) rotate(45)" fill="none" stroke="#3b4853" stroke-linejoin="round" stroke-width="2"/>
    <path id="path-7" data-name="path" d="M1106.5,94l-.661-.661-7.877-7.89-7.89-7.89-4.225-4.225" transform="translate(-678.507 -795.509) rotate(45)" fill="none" stroke="#3b4853" stroke-linejoin="round" stroke-width="2"/>
    <path id="path-8" data-name="path" d="M1106.714,92.466l-.872.872-7.877,7.877-7.89,7.89-4.225,4.225" transform="translate(-678.507 -795.509) rotate(45)" fill="none" stroke="#3b4853" stroke-linejoin="round" stroke-width="2"/>
    <path id="path-9" data-name="path" d="M1075.664,107.736l6.521-6.52,7.89-7.877,7.89-7.89,6.521-6.52" transform="translate(-678.507 -795.509) rotate(45)" fill="#f0f4f8" stroke="#3b4853" stroke-linejoin="round" stroke-width="2"/>
    <path id="path-10" data-name="path" d="M1073.647,94l.661-.661,7.877-7.89,7.89-7.89,4.225-4.225" transform="translate(-678.507 -795.509) rotate(45)" fill="#f0f4f8" stroke="#3b4853" stroke-linejoin="round" stroke-width="2"/>
  </g>
</svg>
