<svg xmlns="http://www.w3.org/2000/svg" width="45.183" height="49.291" viewBox="0 0 45.183 49.291">
  <g id="icon-mono-apple" transform="translate(2 1)">
    <g id="path" transform="translate(-408.257 27.971)" fill="#f0f4f8" stroke-linecap="round" stroke-linejoin="round">
      <path d="M 434.6429138183594 19.31955146789551 C 433.4344177246094 19.31954193115234 432.1401062011719 19.09407043457031 430.7959289550781 18.64940071105957 C 430.1637573242188 18.44097137451172 429.5081176757812 18.33512115478516 428.8481750488281 18.33512115478516 C 428.1884460449219 18.33512115478516 427.5335083007812 18.44092178344727 426.9015502929688 18.64958190917969 C 425.5578918457031 19.09408187866211 424.2635498046875 19.31955146789551 423.0550537109375 19.31955146789551 C 422.9771728515625 19.31955146789551 422.899169921875 19.31861114501953 422.8214416503906 19.31670188903809 C 420.271728515625 19.25532150268555 417.9191284179688 18.50048065185547 415.8294372558594 17.07317161560059 C 413.9767150878906 15.80770111083984 412.3560791015625 14.03268146514893 411.0125427246094 11.79741096496582 C 409.81494140625 9.80492115020752 408.8752136230469 7.518381118774414 408.2195129394531 5.001301288604736 C 407.61962890625 2.698371171951294 407.2875061035156 0.2733611464500427 407.2590942382812 -2.011558771133423 C 407.2272644042969 -4.605838775634766 407.6578369140625 -7.262858867645264 408.5042419433594 -9.695528984069824 C 409.4109191894531 -12.30151844024658 410.7805786132812 -14.5803689956665 412.4651489257812 -16.28572845458984 C 413.6231689453125 -17.45802879333496 414.9312438964844 -18.36928939819336 416.3530578613281 -18.99418830871582 C 417.8822631835938 -19.66628837585449 419.5446166992188 -20.0070686340332 421.2939758300781 -20.0070686340332 C 421.8072509765625 -20.0070686340332 422.3354797363281 -19.97740936279297 422.8639831542969 -19.9189281463623 C 424.2319641113281 -19.76774978637695 425.5880432128906 -19.44966888427734 426.8944396972656 -18.97353935241699 C 427.5302124023438 -18.74195861816406 428.1880187988281 -18.62449836730957 428.849365234375 -18.62449836730957 C 429.5106506347656 -18.62449836730957 430.1681213378906 -18.74192810058594 430.8035583496094 -18.97353935241699 C 432.111572265625 -19.44987869262695 433.4675903320312 -19.76792907714844 434.8341674804688 -19.91894912719727 C 435.3625183105469 -19.97740936279297 435.8907470703125 -20.0070686340332 436.4040222167969 -20.0070686340332 C 438.1534118652344 -20.0070686340332 439.8158569335938 -19.66618919372559 441.3451843261719 -18.99389839172363 C 442.7671203613281 -18.36881828308105 444.0753173828125 -17.45733833312988 445.2334899902344 -16.28476905822754 C 446.9179992675781 -14.57926845550537 448.2875671386719 -12.30048847198486 449.1941833496094 -9.694768905639648 C 450.0406188964844 -7.26201868057251 450.4710388183594 -4.605228900909424 450.4389038085938 -2.011618852615356 C 450.4107666015625 0.2731711566448212 450.0787963867188 2.698221206665039 449.4789123535156 5.001281261444092 C 448.8232727050781 7.51832103729248 447.883544921875 9.804871559143066 446.6858215332031 11.79743099212646 C 445.3422241210938 14.03268146514893 443.7215270996094 15.80770111083984 441.8686828613281 17.07318115234375 C 439.7789306640625 18.50049209594727 437.42626953125 19.25532150268555 434.8760681152344 19.31671142578125 C 434.7987365722656 19.31861114501953 434.7208862304688 19.31955146789551 434.6429138183594 19.31955146789551 Z" stroke="none"/>
      <path d="M 421.2940063476562 -19.00706672668457 C 412.564697265625 -19.00706672668457 408.1622619628906 -9.914966583251953 408.2590026855469 -2.024000644683838 C 408.3659973144531 6.576999664306641 412.9179992675781 18.07799911499023 422.8460083007812 18.3169994354248 C 422.9155578613281 18.3187084197998 422.9853820800781 18.31955146789551 423.0550537109375 18.31955146789551 C 424.2499694824219 18.31955146789551 425.462646484375 18.07228469848633 426.5880126953125 17.69999885559082 C 427.3250427246094 17.4566478729248 428.0867919921875 17.33514785766602 428.8482055664062 17.33512496948242 C 429.6105346679688 17.3351001739502 430.3725280761719 17.45685005187988 431.1099853515625 17.69999885559082 C 432.2352905273438 18.0722599029541 433.4481201171875 18.31955146789551 434.6429138183594 18.31955146789551 C 434.7127075195312 18.31955146789551 434.7823486328125 18.31871032714844 434.8519897460938 18.3169994354248 C 444.7799987792969 18.07799911499023 449.3330078125 6.576999664306641 449.4389953613281 -2.024000644683838 C 449.5366821289062 -9.914458274841309 445.1322937011719 -19.00681686401367 436.4040222167969 -19.00706672668457 C 435.9299621582031 -19.007080078125 435.4435119628906 -18.98027420043945 434.9440002441406 -18.92500114440918 C 433.6409912109375 -18.7810001373291 432.3569946289062 -18.47500038146973 431.14599609375 -18.03400039672852 C 430.3970031738281 -17.76100158691406 429.6232604980469 -17.6245002746582 428.849365234375 -17.6245002746582 C 428.0755004882812 -17.6245002746582 427.3014831542969 -17.76100158691406 426.552001953125 -18.03400039672852 C 425.3420104980469 -18.47500038146973 424.0570068359375 -18.7810001373291 422.7539978027344 -18.92500114440918 C 422.2550659179688 -18.98020935058594 421.7674865722656 -19.00706672668457 421.2940063476562 -19.00706672668457 M 421.2939758300781 -21.00707054138184 C 421.8438415527344 -21.00707054138184 422.4090576171875 -20.97537994384766 422.9739685058594 -20.91287040710449 C 424.421142578125 -20.75293159484863 425.8554992675781 -20.41655158996582 427.2368469238281 -19.9130916595459 C 427.762451171875 -19.72164154052734 428.3051147460938 -19.6245002746582 428.849365234375 -19.6245002746582 C 429.3934936523438 -19.6245002746582 429.9357604980469 -19.72159004211426 430.4610900878906 -19.91307067871094 C 431.8443298339844 -20.41679000854492 433.2785034179688 -20.75312042236328 434.7243041992188 -20.91290092468262 C 435.2890014648438 -20.97537994384766 435.8541259765625 -21.00707054138184 436.4037475585938 -21.00707054138184 C 440.048583984375 -21.00697135925293 443.3478088378906 -19.61692047119141 445.9450988769531 -16.98722076416016 C 447.7334289550781 -15.17657089233398 449.1835327148438 -12.76846122741699 450.138671875 -10.02323055267334 C 451.0227661132812 -7.482180595397949 451.4723815917969 -4.707530975341797 451.4388427734375 -1.999240756034851 C 451.4096984863281 0.3651993274688721 451.0665893554688 2.873149394989014 450.4465942382812 5.253349304199219 C 449.7668762207031 7.862969398498535 448.7899169921875 10.23804950714111 447.5429077148438 12.31261920928955 C 446.1246032714844 14.67215919494629 444.4052734375 16.55167961120605 442.4326782226562 17.89894866943359 C 440.1808471679688 19.43694877624512 437.6465454101562 20.25030899047852 434.9001159667969 20.31641960144043 C 434.8150939941406 20.31851005554199 434.7290954589844 20.31954956054688 434.6429138183594 20.31954956054688 C 433.3275451660156 20.31954956054688 431.9275512695312 20.07704925537109 430.4818420410156 19.59879875183105 C 429.9517822265625 19.42402839660645 429.4015197753906 19.33510971069336 428.8482360839844 19.33511924743652 C 428.2951354980469 19.33513832092285 427.7456359863281 19.42397880554199 427.215087890625 19.59915924072266 C 425.7704467773438 20.07704925537109 424.3704223632812 20.31954956054688 423.0550537109375 20.31954956054688 C 422.9689636230469 20.31954956054688 422.8827514648438 20.31851005554199 422.7968444824219 20.31639862060547 C 420.0514526367188 20.25030899047852 417.5171813964844 19.43693923950195 415.2654113769531 17.89892959594727 C 413.2929382324219 16.55167007446289 411.5736999511719 14.67214965820312 410.1554260253906 12.31257915496826 C 408.9085388183594 10.23809909820557 407.931640625 7.863039016723633 407.2518310546875 5.253389358520508 C 406.6318359375 2.873349189758301 406.28857421875 0.3654792308807373 406.2591552734375 -1.999120712280273 C 406.2259521484375 -4.708271026611328 406.6756896972656 -7.483150959014893 407.5597534179688 -10.02415084838867 C 408.5150146484375 -12.76974105834961 409.9652709960938 -15.17798042297363 411.7537231445312 -16.98850059509277 C 414.3506774902344 -19.61747169494629 417.6496276855469 -21.00707054138184 421.2939758300781 -21.00707054138184 Z" stroke="none" fill="#dbe2ed"/>
    </g>
    <path id="path-2" data-name="path" d="M428.849-18.715a9.251,9.251,0,0,0-9.256-9.256" transform="translate(-408.257 27.971)" fill="none" stroke="#dbe2ed" stroke-linecap="round" stroke-linejoin="round" stroke-width="2"/>
    <path id="path-3" data-name="path" d="M438.105-27.971a9.251,9.251,0,0,1-9.256,9.256A9.251,9.251,0,0,1,438.105-27.971Z" transform="translate(-408.257 27.971)" fill="#f0f4f8" stroke="#dbe2ed" stroke-linecap="round" stroke-linejoin="round" stroke-width="2"/>
    <path id="path-4" data-name="path" d="M419.1-14.616s-5.781,2.117-6.523,9.685" transform="translate(-408.257 27.971)" fill="none" stroke="#dbe2ed" stroke-linecap="round" stroke-linejoin="round" stroke-width="2"/>
  </g>
</svg>
