<svg xmlns="http://www.w3.org/2000/svg" width="65.434" height="65.433" viewBox="0 0 65.434 65.433">
  <g id="icon-pear" transform="translate(2.828 1.414)">
    <path id="path" d="M515.417-26.774a8.95,8.95,0,0,0-8.955-8.956" transform="translate(-334.861 -332.858) rotate(45)" fill="none" stroke="#dbe2ed" stroke-linecap="round" stroke-linejoin="round" stroke-width="2"/>
    <path id="path-2" data-name="path" d="M524.373-35.73a8.951,8.951,0,0,1-8.956,8.956A8.951,8.951,0,0,1,524.373-35.73Z" transform="translate(-334.861 -332.858) rotate(45)" fill="#f0f4f8" stroke="#dbe2ed" stroke-linecap="round" stroke-linejoin="round" stroke-width="2"/>
    <g id="path-3" data-name="path" transform="translate(-334.861 -332.858) rotate(45)" fill="#f0f4f8" stroke-linejoin="round">
      <path d="M 515.4169921875 26.40400123596191 C 513.0619506835938 26.40400123596191 510.77685546875 25.94254112243652 508.6251220703125 25.03244018554688 C 506.5473327636719 24.15360069274902 504.6814575195312 22.89567947387695 503.0794067382812 21.29360961914062 C 501.4773254394531 19.6915397644043 500.2193908691406 17.82567977905273 499.3405456542969 15.74785995483398 C 498.4304504394531 13.59614086151123 497.968994140625 11.31103038787842 497.968994140625 8.956000328063965 C 497.968994140625 6.565793037414551 498.4656372070312 4.193349838256836 499.4151000976562 2.008000373840332 L 499.3268432617188 2.008000373840332 L 500.1425170898438 0.5247704386711121 C 501.089599609375 -1.191139578819275 501.75 -3.038639545440674 502.1053161621094 -4.966389656066895 C 502.4605712890625 -6.893759727478027 502.5024108886719 -8.855429649353027 502.229736328125 -10.79689979553223 L 502.0697326660156 -11.93599987030029 L 502.1235046386719 -11.93599987030029 C 502.1076965332031 -12.18265342712402 502.1000061035156 -12.4189624786377 502.1000061035156 -12.65100002288818 C 502.1000061035156 -16.20785903930664 503.4852600097656 -19.5519905090332 506.0006408691406 -22.06735992431641 C 508.5159912109375 -24.58271980285645 511.8601379394531 -25.9680004119873 515.4169921875 -25.9680004119873 C 518.9742431640625 -25.9680004119873 522.3184814453125 -24.58271980285645 524.833740234375 -22.06733894348145 C 527.348876953125 -19.55208015441895 528.7340087890625 -16.20796012878418 528.7340087890625 -12.65100002288818 C 528.7340087890625 -12.4174747467041 528.7264404296875 -12.18111610412598 528.7108764648438 -11.93599987030029 L 528.7642822265625 -11.93599987030029 L 528.6043090820312 -10.79689979553223 C 528.3316040039062 -8.855719566345215 528.3736572265625 -6.894089698791504 528.7291870117188 -4.966509819030762 C 529.084716796875 -3.03892970085144 529.7453002929688 -1.191399574279785 530.6925048828125 0.5247704386711121 L 531.5111694335938 2.008000373840332 L 531.4197998046875 2.008000373840332 C 532.3687133789062 4.192613124847412 532.864990234375 6.565014839172363 532.864990234375 8.956000328063965 C 532.864990234375 11.31103038787842 532.4035034179688 13.59614086151123 531.493408203125 15.74785995483398 C 530.6145629882812 17.82567977905273 529.356689453125 19.6915397644043 527.7545776367188 21.29360961914062 C 526.1525268554688 22.89567947387695 524.2866821289062 24.15360069274902 522.2088623046875 25.03244018554688 C 520.05712890625 25.94254112243652 517.7720336914062 26.40400123596191 515.4169921875 26.40400123596191 Z" stroke="none"/>
      <path d="M 515.4169921875 25.40400123596191 C 524.5009765625 25.40400123596191 531.864990234375 18.04000091552734 531.864990234375 8.956000328063965 C 531.864990234375 6.072000503540039 531.1179809570312 3.36400032043457 529.8140258789062 1.008000373840332 L 529.8170166015625 1.008000373840332 C 527.8090209960938 -2.62999963760376 527.0360107421875 -6.820999622344971 527.614013671875 -10.93599987030029 L 527.6010131835938 -10.93599987030029 C 527.6799926757812 -11.49799919128418 527.7340087890625 -12.0669994354248 527.7340087890625 -12.65100002288818 C 527.7340087890625 -19.45299911499023 522.219970703125 -24.9680004119873 515.4169921875 -24.9680004119873 C 508.614990234375 -24.9680004119873 503.1000061035156 -19.45299911499023 503.1000061035156 -12.65100002288818 C 503.1000061035156 -12.0669994354248 503.1549987792969 -11.49799919128418 503.2330017089844 -10.93599987030029 L 503.2200012207031 -10.93599987030029 C 503.7980041503906 -6.820999622344971 503.0260009765625 -2.62999963760376 501.0180053710938 1.008000373840332 L 501.02099609375 1.008000373840332 C 499.7170104980469 3.36400032043457 498.968994140625 6.072000503540039 498.968994140625 8.956000328063965 C 498.968994140625 18.04000091552734 506.3330078125 25.40400123596191 515.4169921875 25.40400123596191 M 515.4169921875 27.40400123596191 C 512.9274291992188 27.40400123596191 510.51123046875 26.91596031188965 508.235595703125 25.95345115661621 C 506.03857421875 25.02419090270996 504.0658569335938 23.69429969787598 502.3722839355469 22.00070953369141 C 500.6787109375 20.30713081359863 499.3488159179688 18.33443069458008 498.4195556640625 16.13742065429688 C 497.45703125 13.86177062988281 496.968994140625 11.44559001922607 496.968994140625 8.956000328063965 C 496.968994140625 5.880569934844971 497.7463684082031 2.833387136459351 499.2181396484375 0.1359161734580994 C 499.2335510253906 0.104151226580143 499.2498474121094 0.07266160845756531 499.2669982910156 0.04154041036963463 C 500.1620178222656 -1.580009579658508 500.7861022949219 -3.325909614562988 501.1218872070312 -5.147659778594971 C 501.4576110839844 -6.969109535217285 501.4971618652344 -8.822989463806152 501.2394409179688 -10.65780925750732 C 501.2281494140625 -10.73829460144043 501.2218017578125 -10.81887722015381 501.2203369140625 -10.89921379089355 C 501.138427734375 -11.54452037811279 501.1000061035156 -12.10641574859619 501.1000061035156 -12.65100002288818 C 501.1000061035156 -16.4749698638916 502.5892944335938 -20.07021903991699 505.2935180664062 -22.77445983886719 C 507.9977722167969 -25.47871017456055 511.593017578125 -26.9680004119873 515.4169921875 -26.9680004119873 C 519.2413330078125 -26.9680004119873 522.8367309570312 -25.47868919372559 525.5408935546875 -22.77442932128906 C 528.244873046875 -20.07029914855957 529.7340087890625 -16.47505950927734 529.7340087890625 -12.65100002288818 C 529.7340087890625 -12.09884738922119 529.695556640625 -11.53592777252197 529.6136474609375 -10.89632129669189 C 529.612060546875 -10.81695556640625 529.605712890625 -10.73731422424316 529.5945434570312 -10.65780925750732 C 529.3369140625 -8.823319435119629 529.3765869140625 -6.96951961517334 529.7125854492188 -5.147899627685547 C 530.048583984375 -3.326279640197754 530.6728515625 -1.580299615859985 531.5679931640625 0.04154041036963463 C 531.5852661132812 0.07277505099773407 531.6015625 0.1043306440114975 531.6170043945312 0.1362136155366898 C 533.0879516601562 2.832422733306885 533.864990234375 5.879603862762451 533.864990234375 8.956000328063965 C 533.864990234375 11.44559001922607 533.376953125 13.86177062988281 532.4144287109375 16.13742065429688 C 531.4851684570312 18.33443069458008 530.1552734375 20.30713081359863 528.4617309570312 22.00070953369141 C 526.7681274414062 23.69429969787598 524.79541015625 25.02419090270996 522.598388671875 25.95345115661621 C 520.32275390625 26.91596031188965 517.9065551757812 27.40400123596191 515.4169921875 27.40400123596191 Z" stroke="none" fill="#dbe2ed"/>
    </g>
    <path id="path-4" data-name="path" d="M514.728-20.486a7.573,7.573,0,0,0-7.577,7.577" transform="translate(-334.861 -332.858) rotate(45)" fill="none" stroke="#dbe2ed" stroke-linecap="round" stroke-linejoin="round" stroke-width="2"/>
  </g>
</svg>
