<svg xmlns="http://www.w3.org/2000/svg" width="51.79" height="51.79" viewBox="0 0 51.79 51.79">
  <g id="icon-mono-watermelon" transform="translate(2 2)">
    <g id="path" transform="translate(-485.778 -59.37)" fill="#4e5d6a" stroke-linejoin="round">
      <path d="M 505.573486328125 108.1597518920898 C 501.8081359863281 108.1597518920898 498.1373901367188 107.4453887939453 494.6632080078125 106.036506652832 C 491.0657958984375 104.5776672363281 487.8385009765625 102.4346923828125 485.0709228515625 99.66710662841797 L 484.3638000488281 98.95999145507812 L 485.0709228515625 98.25288391113281 L 524.6619262695312 58.66287994384766 L 525.3690185546875 57.9557991027832 L 526.0761108398438 58.66289138793945 C 528.8434448242188 61.43022918701172 530.9862670898438 64.65736389160156 532.4450073242188 68.254638671875 C 533.853759765625 71.72868347167969 534.5680541992188 75.39933013916016 534.5680541992188 79.16462707519531 C 534.5680541992188 82.92990875244141 533.853759765625 86.60061645507812 532.4450073242188 90.07479095458984 C 530.9862670898438 93.67218017578125 528.843505859375 96.89949035644531 526.076171875 99.66706848144531 C 523.3085327148438 102.4346923828125 520.0811767578125 104.5776672363281 516.4838256835938 106.036506652832 C 513.0095825195312 107.4453887939453 509.3388366699219 108.1597518920898 505.573486328125 108.1597518920898 Z" stroke="none"/>
      <path d="M 525.3690185546875 59.36998748779297 L 485.7780151367188 98.95999908447266 C 491.2445068359375 104.4264984130859 498.4089965820312 107.1597518920898 505.573486328125 107.1597518920898 C 512.7379760742188 107.1597518920898 519.9024658203125 104.4264984130859 525.3690185546875 98.95999908447266 C 536.301025390625 88.02700042724609 536.301025390625 70.302001953125 525.3690185546875 59.36998748779297 M 525.3690185546875 57.36998748779297 C 525.8809204101562 57.36998748779297 526.3927001953125 57.56520843505859 526.783203125 57.95578002929688 C 529.645751953125 60.81826782226562 531.8624267578125 64.15686798095703 533.3717041015625 67.87885284423828 C 534.8291015625 71.47283172607422 535.5679931640625 75.26991271972656 535.5679931640625 79.16461944580078 C 535.5679931640625 83.05933380126953 534.8291015625 86.85646820068359 533.3717041015625 90.4505615234375 C 531.8624267578125 94.17263793945312 529.645751953125 97.51142120361328 526.7833251953125 100.374153137207 C 523.9204711914062 103.2369537353516 520.5816650390625 105.4538116455078 516.859619140625 106.9632110595703 C 513.2655029296875 108.4207305908203 509.46826171875 109.1597518920898 505.573486328125 109.1597518920898 C 501.6787109375 109.1597518920898 497.8815307617188 108.4207305908203 494.2874145507812 106.9632110595703 C 490.5653076171875 105.4537963867188 487.2265014648438 103.2369384765625 484.3638305664062 100.3742065429688 C 483.9887084960938 99.99913787841797 483.7780151367188 99.49041748046875 483.7780151367188 98.95999145507812 C 483.7780151367188 98.42955017089844 483.9887084960938 97.92083740234375 484.3638305664062 97.54576873779297 L 523.954833984375 57.95575714111328 C 524.3453369140625 57.56529235839844 524.8572387695312 57.36998748779297 525.3690185546875 57.36998748779297 Z" stroke="none" fill="#3b4853"/>
    </g>
    <path id="path-2" data-name="path" d="M522.384,62.354a23.763,23.763,0,0,1-33.606,33.607" transform="translate(-485.778 -59.37)" fill="#4e5d6a" stroke="#3b4853" stroke-linejoin="round" stroke-width="2"/>
    <line id="line" x2="1.948" y2="1.948" transform="translate(30.025 30.032)" fill="#e6e6e6" stroke="#3b4853" stroke-linecap="round" stroke-linejoin="round" stroke-width="2"/>
    <line id="line-2" data-name="line" y2="2.755" transform="translate(20.051 34.164)" fill="#e6e6e6" stroke="#3b4853" stroke-linecap="round" stroke-linejoin="round" stroke-width="2"/>
    <line id="line-3" data-name="line" x1="2.755" transform="translate(34.157 20.058)" fill="#e6e6e6" stroke="#3b4853" stroke-linecap="round" stroke-linejoin="round" stroke-width="2"/>
    <line id="line-4" data-name="line" x1="1.055" y2="2.545" transform="translate(13.595 33.089)" fill="#e6e6e6" stroke="#3b4853" stroke-linecap="round" stroke-linejoin="round" stroke-width="2"/>
    <line id="line-5" data-name="line" x1="2.545" y1="1.055" transform="translate(33.082 25.459)" fill="#e6e6e6" stroke="#3b4853" stroke-linecap="round" stroke-linejoin="round" stroke-width="2"/>
    <line id="line-6" data-name="line" x1="2.55" y2="1.043" transform="translate(33.108 13.678)" fill="#e6e6e6" stroke="#3b4853" stroke-linecap="round" stroke-linejoin="round" stroke-width="2"/>
    <line id="line-7" data-name="line" x1="1.043" y1="2.55" transform="translate(25.388 33.115)" fill="#e6e6e6" stroke="#3b4853" stroke-linecap="round" stroke-linejoin="round" stroke-width="2"/>
  </g>
</svg>
