<svg xmlns="http://www.w3.org/2000/svg" width="40.171" height="40.175" viewBox="0 0 40.171 40.175">
  <g id="icon-colour-lemon" transform="translate(1.995 2)">
    <g id="path" transform="translate(-1370.173 93.099)" fill="#f4df47" stroke-linejoin="round">
      <path d="M 1373.5517578125 -55.92329788208008 C 1372.003295898438 -55.92329788208008 1370.592895507812 -56.7285270690918 1369.77880859375 -58.07727813720703 C 1368.997924804688 -59.37151718139648 1368.972534179688 -61.06537628173828 1369.713989257812 -62.39269638061523 C 1369.932373046875 -62.78368759155273 1370.203247070312 -63.13680648803711 1370.51904296875 -63.44203567504883 C 1371.015747070312 -63.91933822631836 1371.167724609375 -64.55526733398438 1370.927734375 -65.14514923095703 C 1368.2080078125 -71.81987762451172 1370.51708984375 -80.44134521484375 1376.673828125 -86.59810638427734 C 1381.039794921875 -90.9639892578125 1386.686645507812 -93.46794891357422 1392.166625976562 -93.46794891357422 C 1394.290649414062 -93.46794891357422 1396.295776367188 -93.08982849121094 1398.126342773438 -92.34410095214844 C 1398.3076171875 -92.27014923095703 1398.49462890625 -92.23272705078125 1398.682495117188 -92.23273468017578 C 1399.099975585938 -92.23274993896484 1399.506469726562 -92.41641998291016 1399.826904296875 -92.74990844726562 C 1400.130737304688 -93.06568908691406 1400.484375 -93.33712768554688 1400.878540039062 -93.55712890625 C 1401.512084960938 -93.91133117675781 1402.23974609375 -94.09868621826172 1402.982421875 -94.09868621826172 C 1403.771484375 -94.09868621826172 1404.5361328125 -93.88896942138672 1405.193603515625 -93.4921875 C 1406.37841796875 -92.77713012695312 1407.15185546875 -91.59526824951172 1407.315673828125 -90.24959564208984 C 1407.479370117188 -88.90515899658203 1407.024658203125 -87.58544921875 1406.068115234375 -86.62887573242188 L 1406.063842773438 -86.62467956542969 L 1406.0595703125 -86.62052917480469 C 1405.557739257812 -86.13051605224609 1405.407348632812 -85.36973571777344 1405.67626953125 -84.68235778808594 C 1406.309204101562 -83.064208984375 1406.659423828125 -81.30597686767578 1406.717407226562 -79.45642852783203 C 1406.774291992188 -77.64143371582031 1406.548706054688 -75.77491760253906 1406.046875 -73.90870666503906 C 1405.011840820312 -70.05935668945312 1402.870727539062 -66.43097686767578 1399.85498046875 -63.41582870483398 C 1395.488891601562 -59.04972457885742 1389.8427734375 -56.54562759399414 1384.3642578125 -56.54562759399414 C 1384.363891601562 -56.54562759399414 1384.363647460938 -56.54562759399414 1384.363403320312 -56.54562759399414 C 1382.312377929688 -56.54572677612305 1380.369506835938 -56.8990364074707 1378.588623046875 -57.59572601318359 C 1378.364501953125 -57.68328857421875 1378.130981445312 -57.72777557373047 1377.895141601562 -57.72777557373047 C 1377.417602539062 -57.72777557373047 1376.97607421875 -57.54475784301758 1376.651611328125 -57.21243667602539 L 1376.647338867188 -57.20813751220703 L 1376.643188476562 -57.20388793945312 C 1375.8173828125 -56.37808609008789 1374.719482421875 -55.92329788208008 1373.5517578125 -55.92329788208008 Z" stroke="none"/>
      <path d="M 1373.5517578125 -56.92329788208008 C 1374.414672851562 -56.92329788208008 1375.277465820312 -57.25243759155273 1375.93603515625 -57.9109992980957 C 1376.463012695312 -58.45074462890625 1377.17041015625 -58.72777938842773 1377.895141601562 -58.72777938842773 C 1378.25 -58.72777938842773 1378.60888671875 -58.66142654418945 1378.953002929688 -58.52699661254883 C 1380.633178710938 -57.86968994140625 1382.465942382812 -57.54571914672852 1384.363403320312 -57.54562377929688 C 1389.365112304688 -57.54536819458008 1394.820556640625 -59.79561996459961 1399.14794921875 -64.12300109863281 C 1405.118041992188 -70.09201049804688 1407.134033203125 -78.20999908447266 1404.744995117188 -84.31800079345703 C 1404.3349609375 -85.36599731445312 1404.556030273438 -86.54999542236328 1405.360961914062 -87.33599853515625 C 1406.875 -88.84999847412109 1406.64697265625 -91.44699859619141 1404.677001953125 -92.63599395751953 C 1404.165649414062 -92.94456481933594 1403.57421875 -93.09869384765625 1402.982421875 -93.09869384765625 C 1402.421508789062 -93.09869384765625 1401.8603515625 -92.96037292480469 1401.365966796875 -92.68399810791016 C 1401.048950195312 -92.50700378417969 1400.776977539062 -92.29499816894531 1400.547973632812 -92.05699920654297 C 1400.038818359375 -91.52713775634766 1399.371459960938 -91.23275756835938 1398.682495117188 -91.23273468017578 C 1398.37158203125 -91.23272705078125 1398.056274414062 -91.29267120361328 1397.7490234375 -91.41799926757812 C 1396.0224609375 -92.12136840820312 1394.129272460938 -92.46794128417969 1392.166748046875 -92.46794128417969 C 1387.164794921875 -92.46794128417969 1381.708129882812 -90.21815490722656 1377.380981445312 -85.89099884033203 C 1371.35498046875 -79.86499786376953 1369.357055664062 -71.64999389648438 1371.85400390625 -65.52201080322266 C 1372.255981445312 -64.53399658203125 1371.983032226562 -63.46199798583984 1371.213989257812 -62.72299575805664 C 1370.97705078125 -62.49399566650391 1370.764038085938 -62.22199630737305 1370.587036132812 -61.90499877929688 C 1370.02001953125 -60.88999557495117 1370.034057617188 -59.58999633789062 1370.635009765625 -58.59399795532227 C 1371.30712890625 -57.48034286499023 1372.429565429688 -56.92329788208008 1373.5517578125 -56.92329788208008 M 1373.5517578125 -54.92329788208008 C 1371.649780273438 -54.92329788208008 1369.919311523438 -55.90918731689453 1368.922729492188 -57.5605583190918 C 1367.95947265625 -59.15699768066406 1367.927490234375 -61.24506759643555 1368.841064453125 -62.88039779663086 C 1369.10693359375 -63.35674667358398 1369.437744140625 -63.78775787353516 1369.824096679688 -64.16106414794922 C 1369.825439453125 -64.16241455078125 1369.826782226562 -64.16376495361328 1369.828247070312 -64.16510772705078 C 1369.940673828125 -64.27311706542969 1370.112548828125 -64.49510955810547 1370.00146484375 -64.76828765869141 C 1369.296508789062 -66.49826049804688 1368.8984375 -68.38052368164062 1368.818359375 -70.36183929443359 C 1368.740600585938 -72.28997039794922 1368.965576171875 -74.27234649658203 1369.4873046875 -76.25391387939453 C 1370.556030273438 -80.31353759765625 1372.796630859375 -84.13501739501953 1375.966796875 -87.30520629882812 C 1380.518798828125 -91.85723114013672 1386.423461914062 -94.46794891357422 1392.166625976562 -94.46794891357422 C 1394.420532226562 -94.46794891357422 1396.552612304688 -94.06496429443359 1398.503540039062 -93.27021026611328 C 1398.565673828125 -93.24488830566406 1398.623901367188 -93.23273468017578 1398.682495117188 -93.23273468017578 C 1398.825317382812 -93.23273468017578 1398.975708007812 -93.30735015869141 1399.10595703125 -93.44281768798828 C 1399.478637695312 -93.8302001953125 1399.910766601562 -94.16212463378906 1400.390991210938 -94.43026733398438 C 1401.1728515625 -94.86735534667969 1402.0693359375 -95.09868621826172 1402.982421875 -95.09868621826172 C 1403.95361328125 -95.09868621826172 1404.896850585938 -94.83924102783203 1405.710327148438 -94.348388671875 C 1407.16015625 -93.47329711914062 1408.107055664062 -92.02344512939453 1408.308349609375 -90.37047576904297 C 1408.509521484375 -88.71872711181641 1407.95068359375 -87.09723663330078 1406.775146484375 -85.92176818847656 C 1406.76953125 -85.91616821289062 1406.763916015625 -85.91059875488281 1406.75830078125 -85.90505981445312 C 1406.541137695312 -85.69300842285156 1406.483276367188 -85.36410522460938 1406.607543945312 -85.04670715332031 C 1407.282104492188 -83.32190704345703 1407.655395507812 -81.45166778564453 1407.716918945312 -79.48773956298828 C 1407.77685546875 -77.57455444335938 1407.539794921875 -75.61013793945312 1407.012573242188 -73.6490478515625 C 1405.932006835938 -69.63067626953125 1403.701538085938 -65.84754943847656 1400.56201171875 -62.70865631103516 C 1396.009887695312 -58.15649795532227 1390.10595703125 -55.54562759399414 1384.3642578125 -55.54562759399414 C 1382.187133789062 -55.54572677612305 1380.121704101562 -55.92215728759766 1378.224365234375 -56.66445922851562 C 1378.117065429688 -56.70635604858398 1378.005981445312 -56.72777557373047 1377.895141601562 -56.72777557373047 C 1377.74951171875 -56.72777557373047 1377.539672851562 -56.69066619873047 1377.3671875 -56.51387786865234 C 1377.361572265625 -56.50814819335938 1377.35595703125 -56.50244903564453 1377.350219726562 -56.49678802490234 C 1376.335571289062 -55.48210906982422 1374.986572265625 -54.92329788208008 1373.5517578125 -54.92329788208008 Z" stroke="none" fill="#f2d144"/>
    </g>
    <path id="path-2" data-name="path" d="M1395.509-88.215c-3.818-1.385-8.653-.523-12.706,2.427" transform="translate(-1370.173 93.099)" fill="none" stroke="#f2d144" stroke-linecap="round" stroke-linejoin="round" stroke-width="2"/>
  </g>
</svg>
