<svg xmlns="http://www.w3.org/2000/svg" width="51.783" height="51.785" viewBox="0 0 51.783 51.785">
  <g id="icon-colour-banana" transform="translate(2 2)">
    <g id="path" transform="translate(-606.406 105.615)" fill="#f4df47" stroke-linejoin="round">
      <path d="M 626.1919555664062 -56.83004379272461 C 623.8748168945312 -56.83004379272461 621.5712280273438 -57.10273361206055 619.34521484375 -57.64053344726562 C 617.1769409179688 -58.16440200805664 615.07177734375 -58.94204330444336 613.0883178710938 -59.95184326171875 C 612.2150268554688 -60.39687347412109 611.2073974609375 -60.63200378417969 610.1740112304688 -60.63200378417969 L 607.5999755859375 -60.63200378417969 C 606.3901977539062 -60.63200378417969 605.406005859375 -61.6162223815918 605.406005859375 -62.82600021362305 L 605.406005859375 -63.66100311279297 C 605.406005859375 -64.87133026123047 606.3901977539062 -65.85600280761719 607.5999755859375 -65.85600280761719 L 610.9979858398438 -65.85600280761719 C 615.7489624023438 -65.85600280761719 620.3558349609375 -66.78465270996094 624.6906127929688 -68.61617279052734 C 628.8788452148438 -70.38574981689453 632.6395874023438 -72.91976165771484 635.8684692382812 -76.14781951904297 C 639.0977783203125 -79.37631225585938 641.6327514648438 -83.13686370849609 643.4030151367188 -87.32501220703125 C 645.2357177734375 -91.66078948974609 646.1649780273438 -96.26946258544922 646.1649780273438 -101.0230026245117 L 646.1649780273438 -104.4209899902344 C 646.1649780273438 -105.6307754516602 647.1492309570312 -106.614990234375 648.3590087890625 -106.614990234375 L 649.1829833984375 -106.614990234375 C 650.3927612304688 -106.614990234375 651.3770141601562 -105.6307754516602 651.3770141601562 -104.4209899902344 L 651.3770141601562 -101.8479995727539 C 651.3770141601562 -100.8126525878906 651.611083984375 -99.80606842041016 652.053955078125 -98.93707275390625 C 654.4671020507812 -94.20522308349609 655.5200805664062 -88.86666870117188 655.0989379882812 -83.49879455566406 C 654.5404052734375 -76.38848114013672 651.3251342773438 -69.73531341552734 646.0454711914062 -64.7647705078125 C 640.7696533203125 -59.79783248901367 633.9342651367188 -56.98208236694336 626.7984619140625 -56.83621215820312 C 626.5969848632812 -56.83212280273438 626.3930053710938 -56.83004379272461 626.1919555664062 -56.83004379272461 Z" stroke="none"/>
      <path d="M 648.3590087890625 -105.6150054931641 C 647.7000122070312 -105.6150054931641 647.1649780273438 -105.0800018310547 647.1649780273438 -104.4210052490234 L 647.1649780273438 -101.0230026245117 C 647.1649780273438 -81.0260009765625 630.9819946289062 -64.85600280761719 610.9979858398438 -64.85600280761719 L 607.5999755859375 -64.85600280761719 C 606.9409790039062 -64.85600280761719 606.406005859375 -64.32099914550781 606.406005859375 -63.66099548339844 L 606.406005859375 -62.82600402832031 C 606.406005859375 -62.16600036621094 606.9409790039062 -61.63200378417969 607.5999755859375 -61.63200378417969 L 610.1740112304688 -61.63200378417969 C 611.343017578125 -61.63200378417969 612.5 -61.37400054931641 613.5419921875 -60.84300231933594 C 617.3340454101562 -58.91244506835938 621.6348876953125 -57.83003997802734 626.1920166015625 -57.83003997802734 C 626.3865966796875 -57.83003997802734 626.58251953125 -57.83203125 626.7780151367188 -57.83599853515625 C 641.0130004882812 -58.12699890136719 652.9869995117188 -69.38300323486328 654.1019897460938 -83.57700347900391 C 654.5250244140625 -88.96900177001953 653.4130249023438 -94.07099914550781 651.1630249023438 -98.48300170898438 C 650.6329956054688 -99.52300262451172 650.3770141601562 -100.6800003051758 650.3770141601562 -101.8480072021484 L 650.3770141601562 -104.4210052490234 C 650.3770141601562 -105.0800018310547 649.8419799804688 -105.6150054931641 649.1829833984375 -105.6150054931641 L 648.3590087890625 -105.6150054931641 M 648.3590087890625 -107.6150054931641 L 649.1829833984375 -107.6150054931641 C 650.9441528320312 -107.6150054931641 652.3770141601562 -106.1821823120117 652.3770141601562 -104.4210052490234 L 652.3770141601562 -101.8480072021484 C 652.3770141601562 -100.9697570800781 652.5734252929688 -100.1201782226562 652.9449462890625 -99.39115142822266 C 655.4417724609375 -94.49512481689453 656.5314331054688 -88.97241973876953 656.0958251953125 -83.42057037353516 C 655.517822265625 -76.06187438964844 652.1919555664062 -69.17793273925781 646.73095703125 -64.03667449951172 C 641.2743530273438 -58.89960479736328 634.2028198242188 -55.98736572265625 626.8189086914062 -55.83641815185547 C 626.6103515625 -55.83218383789062 626.3995361328125 -55.83003997802734 626.1919555664062 -55.83003997802734 C 623.7957763671875 -55.83003997802734 621.4131469726562 -56.11214447021484 619.1104125976562 -56.66849517822266 C 616.8663330078125 -57.21067047119141 614.6875610351562 -58.01551818847656 612.6345825195312 -59.06069183349609 C 611.9009399414062 -59.43456268310547 611.05029296875 -59.63200378417969 610.1740112304688 -59.63200378417969 L 607.5999755859375 -59.63200378417969 C 605.8388061523438 -59.63200378417969 604.406005859375 -61.0648193359375 604.406005859375 -62.82600402832031 L 604.406005859375 -63.66099548339844 C 604.406005859375 -65.42272186279297 605.8388061523438 -66.85600280761719 607.5999755859375 -66.85600280761719 L 610.9979858398438 -66.85600280761719 C 615.6145629882812 -66.85600280761719 620.0904541015625 -67.75813293457031 624.3014526367188 -69.53732299804688 C 628.370361328125 -71.25649261474609 632.024169921875 -73.71852111816406 635.1614379882812 -76.85501098632812 C 638.2991333007812 -79.99192047119141 640.7620849609375 -83.64552307128906 642.48193359375 -87.71435546875 C 644.2622680664062 -91.92626190185547 645.1649780273438 -96.40393829345703 645.1649780273438 -101.0230026245117 L 645.1649780273438 -104.4210052490234 C 645.1649780273438 -106.1821823120117 646.5978393554688 -107.6150054931641 648.3590087890625 -107.6150054931641 Z" stroke="none" fill="#f2d144"/>
    </g>
    <path id="path-2" data-name="path" d="M625.233-61.242A25.547,25.547,0,0,0,650.794-86.8" transform="translate(-606.406 105.615)" fill="none" stroke="#f2d144" stroke-linecap="round" stroke-linejoin="round" stroke-width="2"/>
  </g>
</svg>
