<svg xmlns="http://www.w3.org/2000/svg" width="57.314" height="57.314" viewBox="0 0 57.314 57.314">
  <g id="icon-strawberry" transform="translate(2.828 2.828)">
    <g id="path" transform="translate(-797.447 -561.738) rotate(45)" fill="#f0f4f8" stroke-linejoin="round">
      <path d="M 997.6160278320312 -145.3459930419922 C 995.2620849609375 -145.3459930419922 992.9266967773438 -146.2845611572266 990.6746826171875 -148.1356353759766 C 988.7283325195312 -149.7354736328125 986.9192504882812 -151.9473266601562 985.297607421875 -154.7097473144531 C 982.33154296875 -159.7624816894531 980.4149780273438 -166.0771026611328 980.4149780273438 -170.7969970703125 C 980.4149780273438 -173.1185607910156 980.869873046875 -175.3712310791016 981.76708984375 -177.4924621582031 C 982.6334228515625 -179.5408630371094 983.87353515625 -181.3803100585938 985.452880859375 -182.959716796875 C 987.0322875976562 -184.5391693115234 988.8717041015625 -185.7793273925781 990.9201049804688 -186.6457672119141 C 993.0414428710938 -187.5430297851562 995.2942504882812 -187.9980010986328 997.6160278320312 -187.9980010986328 C 999.9375610351562 -187.9980010986328 1002.190246582031 -187.5430297851562 1004.3115234375 -186.645751953125 C 1006.35986328125 -185.7793121337891 1008.199340820312 -184.5391540527344 1009.778747558594 -182.9597320556641 C 1011.358154296875 -181.3803100585938 1012.598327636719 -179.5408630371094 1013.464782714844 -177.4924926757812 C 1014.362060546875 -175.3712310791016 1014.817016601562 -173.1185302734375 1014.817016601562 -170.7969970703125 C 1014.817016601562 -166.0772705078125 1012.900329589844 -159.7626342773438 1009.934020996094 -154.7097320556641 C 1008.312316894531 -151.9473419189453 1006.503234863281 -149.7355041503906 1004.556945800781 -148.1356506347656 C 1002.304992675781 -146.2845611572266 999.9697265625 -145.3459930419922 997.6160278320312 -145.3459930419922 Z" stroke="none"/>
      <path d="M 997.6160278320312 -186.9980010986328 C 988.6680297851562 -186.9980010986328 981.4149780273438 -179.7440032958984 981.4149780273438 -170.7969970703125 C 981.4149780273438 -161.8489990234375 988.6680297851562 -146.3459930419922 997.6160278320312 -146.3459930419922 C 1006.56298828125 -146.3459930419922 1013.817016601562 -161.8489990234375 1013.817016601562 -170.7969970703125 C 1013.817016601562 -179.7440032958984 1006.56298828125 -186.9980010986328 997.6160278320312 -186.9980010986328 M 997.6160278320312 -188.9980010986328 C 1000.072143554688 -188.9980010986328 1002.455871582031 -188.5164642333984 1004.701049804688 -187.5667572021484 C 1006.86865234375 -186.64990234375 1008.814880371094 -185.3377838134766 1010.48583984375 -183.6668395996094 C 1012.156799316406 -181.9959106445312 1013.468933105469 -180.0496215820312 1014.3857421875 -177.882080078125 C 1015.33544921875 -175.6368713378906 1015.817016601562 -173.2531127929688 1015.817016601562 -170.7969970703125 C 1015.817016601562 -168.3896179199219 1015.34716796875 -165.5630187988281 1014.458190917969 -162.6227874755859 C 1013.568420410156 -159.6798706054688 1012.302185058594 -156.7685241699219 1010.79638671875 -154.2034759521484 C 1007.064697265625 -147.8467864990234 1002.3837890625 -144.3459930419922 997.6160278320312 -144.3459930419922 C 992.8478393554688 -144.3459930419922 988.1668090820312 -147.8468017578125 984.4352416992188 -154.2035064697266 C 982.9295043945312 -156.7685089111328 981.663330078125 -159.6798706054688 980.7736206054688 -162.6228332519531 C 979.8848266601562 -165.5630035400391 979.4149780273438 -168.3895874023438 979.4149780273438 -170.7969970703125 C 979.4149780273438 -173.2531127929688 979.896484375 -175.6368560791016 980.8460693359375 -177.8820190429688 C 981.7628784179688 -180.0496063232422 983.0748901367188 -181.9958953857422 984.7457275390625 -183.6668243408203 C 986.4166870117188 -185.3377838134766 988.3629150390625 -186.64990234375 990.530517578125 -187.5667572021484 C 992.7758178710938 -188.5164642333984 995.15966796875 -188.9980010986328 997.6160278320312 -188.9980010986328 Z" stroke="none" fill="#dbe2ed"/>
    </g>
    <line id="line" y2="1.352" transform="translate(21.796 17.935) rotate(45)" fill="none" stroke="#dbe2ed" stroke-linecap="round" stroke-linejoin="round" stroke-width="2"/>
    <line id="line-2" data-name="line" y2="1.352" transform="translate(33.721 29.86) rotate(45)" fill="none" stroke="#dbe2ed" stroke-linecap="round" stroke-linejoin="round" stroke-width="2"/>
    <line id="line-3" data-name="line" y2="1.352" transform="translate(14.803 30.938) rotate(45)" fill="none" stroke="#dbe2ed" stroke-linecap="round" stroke-linejoin="round" stroke-width="2"/>
    <line id="line-4" data-name="line" y2="1.352" transform="translate(20.719 36.854) rotate(45)" fill="none" stroke="#dbe2ed" stroke-linecap="round" stroke-linejoin="round" stroke-width="2"/>
    <line id="line-5" data-name="line" y2="1.352" transform="translate(23.677 27.98) rotate(45)" fill="none" stroke="#dbe2ed" stroke-linecap="round" stroke-linejoin="round" stroke-width="2"/>
    <g id="path-2" data-name="path" transform="translate(-797.447 -561.738) rotate(45)" fill="#f0f4f8" stroke-linejoin="round">
      <path d="M 997.615966796875 -172.0722503662109 C 996.9945068359375 -172.0722503662109 996.4368286132812 -172.4377593994141 996.1607055664062 -173.0261535644531 L 993.5113525390625 -178.6730499267578 L 988.7321166992188 -176.5239715576172 C 988.5172119140625 -176.4272155761719 988.2914428710938 -176.3780822753906 988.0615234375 -176.3780822753906 C 987.445068359375 -176.3780822753906 986.8753662109375 -176.7422180175781 986.6101684570312 -177.3057708740234 C 986.3487548828125 -177.8612976074219 986.4320678710938 -178.5033721923828 986.8275146484375 -178.9814147949219 L 989.6522216796875 -182.3930053710938 L 986.9229736328125 -182.3930053710938 C 986.164794921875 -182.3930053710938 985.5204467773438 -182.9055480957031 985.3560791015625 -183.6394195556641 C 985.1929931640625 -184.3676147460938 985.5538330078125 -185.1000061035156 986.2334594726562 -185.4205017089844 C 989.86279296875 -187.1330871582031 993.6925048828125 -188.0014953613281 997.615966796875 -188.0014953613281 C 1001.539489746094 -188.0014953613281 1005.369201660156 -187.1330871582031 1008.998779296875 -185.4203796386719 C 1009.67822265625 -185.1000061035156 1010.039001464844 -184.3675842285156 1009.875915527344 -183.639404296875 C 1009.711547851562 -182.9055480957031 1009.067260742188 -182.3930053710938 1008.309020996094 -182.3930053710938 L 1005.578918457031 -182.3930053710938 L 1008.404113769531 -178.9818572998047 C 1008.799865722656 -178.5034790039062 1008.883056640625 -177.8615264892578 1008.621704101562 -177.3060455322266 C 1008.356384277344 -176.7423248291016 1007.78662109375 -176.3780822753906 1007.170166015625 -176.3780822753906 C 1006.940063476562 -176.3780822753906 1006.714233398438 -176.4273071289062 1006.498901367188 -176.5243835449219 L 1001.720642089844 -178.6730499267578 L 999.0713500976562 -173.0262603759766 C 998.795166015625 -172.4377593994141 998.2374877929688 -172.0722503662109 997.615966796875 -172.0722503662109 Z" stroke="none"/>
      <path d="M 997.615966796875 -173.0722503662109 C 997.831787109375 -173.0722503662109 998.0475463867188 -173.1985015869141 998.166015625 -173.4510040283203 L 1000.981018066406 -179.4510040283203 C 1001.082458496094 -179.667724609375 1001.301574707031 -179.7955474853516 1001.53076171875 -179.7955474853516 C 1001.615600585938 -179.7955474853516 1001.701843261719 -179.7780303955078 1001.783996582031 -179.7409973144531 L 1006.909973144531 -177.4360046386719 C 1006.998596191406 -177.3960418701172 1007.08642578125 -177.3780822753906 1007.170166015625 -177.3780822753906 C 1007.63525390625 -177.3780822753906 1007.974670410156 -177.93212890625 1007.633972167969 -178.343994140625 L 1004.2490234375 -182.4309997558594 C 1003.929016113281 -182.8170013427734 1004.210998535156 -183.3930053710938 1004.719970703125 -183.3930053710938 L 1008.309020996094 -183.3930053710938 C 1008.952026367188 -183.3930053710938 1009.151000976562 -184.2429962158203 1008.572021484375 -184.5160064697266 C 1005.060546875 -186.1730041503906 1001.338256835938 -187.0014953613281 997.6160278320312 -187.0014953613281 C 993.8937377929688 -187.0014953613281 990.1715087890625 -186.1730041503906 986.6599731445312 -184.5160064697266 C 986.0809936523438 -184.2429962158203 986.280029296875 -183.3930053710938 986.9229736328125 -183.3930053710938 L 990.5120239257812 -183.3930053710938 C 991.02099609375 -183.3930053710938 991.302001953125 -182.8170013427734 990.9819946289062 -182.4309997558594 L 987.5980224609375 -178.343994140625 C 987.25732421875 -177.9321594238281 987.5960693359375 -177.3780822753906 988.0615234375 -177.3780822753906 C 988.1453247070312 -177.3780822753906 988.2332153320312 -177.3960266113281 988.322021484375 -177.4360046386719 L 993.447998046875 -179.7409973144531 C 993.5301513671875 -179.7780151367188 993.6163330078125 -179.7955474853516 993.7011108398438 -179.7955474853516 C 993.9300537109375 -179.7955474853516 994.1488647460938 -179.6677551269531 994.2509765625 -179.4510040283203 L 997.0659790039062 -173.4510040283203 C 997.1844482421875 -173.1985015869141 997.4002075195312 -173.0722503662109 997.615966796875 -173.0722503662109 M 997.615966796875 -171.0722503662109 C 996.6026000976562 -171.0722503662109 995.6980590820312 -171.6581573486328 995.2554321289062 -172.6013031005859 L 993.0240478515625 -177.3574523925781 L 989.1422729492188 -175.6119232177734 C 988.7977905273438 -175.4568634033203 988.4339599609375 -175.3780822753906 988.0615234375 -175.3780822753906 C 987.0595703125 -175.3780822753906 986.1347045898438 -175.9676055908203 985.7053833007812 -176.8799896240234 C 985.2772827148438 -177.7897033691406 985.4119873046875 -178.8391723632812 986.0570068359375 -179.6188354492188 L 987.5259399414062 -181.3930053710938 L 986.9229736328125 -181.3930053710938 C 985.6932373046875 -181.3930053710938 984.6476440429688 -182.2268981933594 984.3802490234375 -183.4208831787109 C 984.1141357421875 -184.6091918945312 984.7008666992188 -185.8034057617188 985.8070068359375 -186.3249969482422 C 989.570556640625 -188.1009063720703 993.5438232421875 -189.0014953613281 997.615966796875 -189.0014953613281 C 1001.688171386719 -189.0014953613281 1005.661437988281 -188.1009063720703 1009.425537109375 -186.3247528076172 C 1010.531188964844 -185.8033752441406 1011.117858886719 -184.6091766357422 1010.851745605469 -183.4208679199219 C 1010.584350585938 -182.2268829345703 1009.538757324219 -181.3930053710938 1008.309020996094 -181.3930053710938 L 1007.705627441406 -181.3930053710938 L 1009.17431640625 -179.6197052001953 C 1009.819885253906 -178.8392791748047 1009.95458984375 -177.7899322509766 1009.526489257812 -176.8802642822266 C 1009.097106933594 -175.9677276611328 1008.172180175781 -175.3780822753906 1007.170166015625 -175.3780822753906 C 1006.797424316406 -175.3780822753906 1006.433288574219 -175.45703125 1006.087951660156 -175.6127471923828 L 1002.207946777344 -177.3574523925781 L 999.9766235351562 -172.6015167236328 C 999.533935546875 -171.6581573486328 998.62939453125 -171.0722503662109 997.615966796875 -171.0722503662109 Z" stroke="none" fill="#dbe2ed"/>
    </g>
  </g>
</svg>
