<svg xmlns="http://www.w3.org/2000/svg" width="51.79" height="51.79" viewBox="0 0 51.79 51.79">
  <g id="icon-colour-watermelon" transform="translate(2 2)">
    <g id="path" transform="translate(-1449.743 -59.37)" fill="#f45b5b" stroke-linejoin="round">
      <path d="M 1469.5380859375 108.1597518920898 C 1465.772705078125 108.1597518920898 1462.101928710938 107.4453887939453 1458.627807617188 106.036506652832 C 1455.030395507812 104.5776519775391 1451.80322265625 102.4346618652344 1449.035888671875 99.66706848144531 L 1448.328857421875 98.95996856689453 L 1449.035888671875 98.25289154052734 L 1488.625854492188 58.66289138793945 L 1489.3330078125 57.9558219909668 L 1490.0400390625 58.66286087036133 C 1492.8076171875 61.43019866943359 1494.95068359375 64.65733337402344 1496.409545898438 68.25460815429688 C 1497.818359375 71.72866058349609 1498.53271484375 75.39932250976562 1498.53271484375 79.16462707519531 C 1498.53271484375 82.92992401123047 1497.818359375 86.60063934326172 1496.409545898438 90.07482147216797 C 1494.95068359375 93.67221069335938 1492.807739257812 96.89952850341797 1490.040161132812 99.66710662841797 C 1487.272827148438 102.4346618652344 1484.045654296875 104.5776519775391 1480.4482421875 106.036506652832 C 1476.97412109375 107.4453887939453 1473.303344726562 108.1597518920898 1469.5380859375 108.1597518920898 Z" stroke="none"/>
      <path d="M 1489.3330078125 59.36998748779297 L 1449.743041992188 98.95999908447266 C 1455.208984375 104.4264984130859 1462.37353515625 107.1597518920898 1469.537963867188 107.1597518920898 C 1476.702514648438 107.1597518920898 1483.866943359375 104.4264984130859 1489.3330078125 98.95999908447266 C 1500.265991210938 88.02700042724609 1500.265991210938 70.302001953125 1489.3330078125 59.36998748779297 M 1489.3330078125 57.36998748779297 C 1489.844848632812 57.36998748779297 1490.356567382812 57.56521606445312 1490.747192382812 57.95571136474609 C 1493.60986328125 60.81820678710938 1495.826782226562 64.15680694580078 1497.336181640625 67.87879180908203 C 1498.793701171875 71.47279357910156 1499.53271484375 75.26988983154297 1499.53271484375 79.16461944580078 C 1499.53271484375 83.05934906005859 1498.793701171875 86.85651397705078 1497.336181640625 90.45062255859375 C 1495.826782226562 94.17270660400391 1493.609985351562 97.51148986816406 1490.747192382812 100.3742065429688 C 1487.884765625 103.2369003295898 1484.546142578125 105.4537811279297 1480.824096679688 106.9632110595703 C 1477.22998046875 108.4207305908203 1473.432861328125 109.1597518920898 1469.537963867188 109.1597518920898 C 1465.643188476562 109.1597518920898 1461.846069335938 108.4207305908203 1458.251953125 106.9632110595703 C 1454.529907226562 105.4537658691406 1451.191284179688 103.2369003295898 1448.328735351562 100.374153137207 C 1447.547729492188 99.59309387207031 1447.5478515625 98.32681274414062 1448.328857421875 97.54579162597656 L 1487.918823242188 57.95578002929688 C 1488.309326171875 57.56526184082031 1488.821166992188 57.36998748779297 1489.3330078125 57.36998748779297 Z" stroke="none" fill="#aad353"/>
    </g>
    <path id="path-2" data-name="path" d="M1449.743,98.96a27.994,27.994,0,0,0,39.59-39.59l-2.984,2.984a23.764,23.764,0,1,1-33.607,33.607Z" transform="translate(-1449.743 -59.37)" fill="#c7ea71"/>
    <path id="path-3" data-name="path" d="M1452.742,95.961" transform="translate(-1449.743 -59.37)" fill="none" stroke="#aad353" stroke-linejoin="round" stroke-width="2"/>
    <path id="path-4" data-name="path" d="M1486.349,62.354" transform="translate(-1449.743 -59.37)" fill="none" stroke="#aad353" stroke-linejoin="round" stroke-width="2"/>
    <line id="line" x2="1.948" y2="1.948" transform="translate(30.025 30.032)" fill="none" stroke="#cc2e2e" stroke-linecap="round" stroke-linejoin="round" stroke-width="2"/>
    <line id="line-2" data-name="line" y2="2.755" transform="translate(20.05 34.164)" fill="none" stroke="#cc2e2e" stroke-linecap="round" stroke-linejoin="round" stroke-width="2"/>
    <line id="line-3" data-name="line" x1="2.755" transform="translate(34.156 20.058)" fill="none" stroke="#cc2e2e" stroke-linecap="round" stroke-linejoin="round" stroke-width="2"/>
    <line id="line-4" data-name="line" x1="1.055" y2="2.545" transform="translate(13.594 33.089)" fill="none" stroke="#cc2e2e" stroke-linecap="round" stroke-linejoin="round" stroke-width="2"/>
    <line id="line-5" data-name="line" x1="2.545" y1="1.055" transform="translate(33.082 25.459)" fill="none" stroke="#cc2e2e" stroke-linecap="round" stroke-linejoin="round" stroke-width="2"/>
    <line id="line-6" data-name="line" x1="2.55" y2="1.043" transform="translate(33.108 13.678)" fill="none" stroke="#cc2e2e" stroke-linecap="round" stroke-linejoin="round" stroke-width="2"/>
    <line id="line-7" data-name="line" x1="1.043" y1="2.55" transform="translate(25.388 33.115)" fill="none" stroke="#cc2e2e" stroke-linecap="round" stroke-linejoin="round" stroke-width="2"/>
  </g>
</svg>
