<svg xmlns="http://www.w3.org/2000/svg" width="57.314" height="57.314" viewBox="0 0 57.314 57.314">
  <g id="icon-colour-strawberry" transform="translate(2.828 2.828)">
    <g id="path" transform="translate(-1016.02 -781.823) rotate(45)" fill="#f45b5b" stroke-linejoin="round">
      <path d="M 1307.7939453125 -144.2760009765625 C 1305.440185546875 -144.2760009765625 1303.10498046875 -145.2146301269531 1300.85302734375 -147.0657958984375 C 1298.90673828125 -148.6657257080078 1297.09765625 -150.8776397705078 1295.475952148438 -153.64013671875 C 1292.509765625 -158.6931610107422 1290.593017578125 -165.0076446533203 1290.593017578125 -169.7270050048828 C 1290.593017578125 -172.0487670898438 1291.047973632812 -174.3016052246094 1291.9453125 -176.4229125976562 C 1292.811645507812 -178.4713134765625 1294.051879882812 -180.3107452392578 1295.63134765625 -181.8901214599609 C 1297.210693359375 -183.4694519042969 1299.050170898438 -184.7095336914062 1301.098510742188 -185.5759124755859 C 1303.2197265625 -186.4730834960938 1305.472412109375 -186.9279937744141 1307.7939453125 -186.9279937744141 C 1310.11572265625 -186.9279937744141 1312.368530273438 -186.4730834960938 1314.489868164062 -185.5759124755859 C 1316.538208007812 -184.7095336914062 1318.377685546875 -183.4694671630859 1319.95703125 -181.8901062011719 C 1321.536376953125 -180.3107452392578 1322.776489257812 -178.4713134765625 1323.642944335938 -176.4228820800781 C 1324.5400390625 -174.3016052246094 1324.994995117188 -172.0487823486328 1324.994995117188 -169.7270050048828 C 1324.994995117188 -165.0074615478516 1323.078491210938 -158.6929779052734 1320.1123046875 -153.64013671875 C 1318.49072265625 -150.8776245117188 1316.681640625 -148.6656951904297 1314.7353515625 -147.0657958984375 C 1312.483276367188 -145.2146148681641 1310.14794921875 -144.2760009765625 1307.7939453125 -144.2760009765625 Z" stroke="none"/>
      <path d="M 1307.7939453125 -185.9279937744141 C 1298.847045898438 -185.9279937744141 1291.593017578125 -178.6750030517578 1291.593017578125 -169.7270050048828 C 1291.593017578125 -160.7799987792969 1298.847045898438 -145.2760009765625 1307.7939453125 -145.2760009765625 C 1316.741943359375 -145.2760009765625 1323.994995117188 -160.7799987792969 1323.994995117188 -169.7270050048828 C 1323.994995117188 -178.6750030517578 1316.741943359375 -185.9279937744141 1307.7939453125 -185.9279937744141 M 1307.7939453125 -187.9279937744141 C 1310.250244140625 -187.9279937744141 1312.634155273438 -187.4465026855469 1314.87939453125 -186.4969177246094 C 1317.046997070312 -185.5801391601562 1318.993286132812 -184.2680969238281 1320.664184570312 -182.5972137451172 C 1322.335083007812 -180.9263458251953 1323.647094726562 -178.9800567626953 1324.56396484375 -176.8124237060547 C 1325.513549804688 -174.5672149658203 1325.994995117188 -172.183349609375 1325.994995117188 -169.7270050048828 C 1325.994995117188 -167.31982421875 1325.525146484375 -164.4933929443359 1324.636352539062 -161.5532531738281 C 1323.74658203125 -158.6103057861328 1322.48046875 -155.6989440917969 1320.974731445312 -153.1338958740234 C 1317.2431640625 -146.7769470214844 1312.562133789062 -143.2760009765625 1307.7939453125 -143.2760009765625 C 1303.026245117188 -143.2760009765625 1298.345336914062 -146.7769317626953 1294.613647460938 -153.1338806152344 C 1293.107788085938 -155.6989440917969 1291.841674804688 -158.6103057861328 1290.951782226562 -161.5532073974609 C 1290.062866210938 -164.4933929443359 1289.593017578125 -167.3198547363281 1289.593017578125 -169.7270050048828 C 1289.593017578125 -172.1833343505859 1290.074584960938 -174.5672454833984 1291.024291992188 -176.8124847412109 C 1291.941162109375 -178.9800720214844 1293.253295898438 -180.9263458251953 1294.924194335938 -182.5972442626953 C 1296.595092773438 -184.2680969238281 1298.541381835938 -185.5801239013672 1300.708984375 -186.4969024658203 C 1302.9541015625 -187.4465026855469 1305.337890625 -187.9279937744141 1307.7939453125 -187.9279937744141 Z" stroke="none" fill="#e24949"/>
    </g>
    <line id="line" y2="1.352" transform="translate(21.797 17.935) rotate(45)" fill="none" stroke="#e24949" stroke-linecap="round" stroke-linejoin="round" stroke-width="2"/>
    <line id="line-2" data-name="line" y2="1.352" transform="translate(33.722 29.86) rotate(45)" fill="none" stroke="#e24949" stroke-linecap="round" stroke-linejoin="round" stroke-width="2"/>
    <line id="line-3" data-name="line" y2="1.352" transform="translate(14.803 30.938) rotate(45)" fill="none" stroke="#e24949" stroke-linecap="round" stroke-linejoin="round" stroke-width="2"/>
    <line id="line-4" data-name="line" y2="1.352" transform="translate(20.719 36.854) rotate(45)" fill="none" stroke="#e24949" stroke-linecap="round" stroke-linejoin="round" stroke-width="2"/>
    <line id="line-5" data-name="line" y2="1.352" transform="translate(23.677 27.98) rotate(45)" fill="none" stroke="#e24949" stroke-linecap="round" stroke-linejoin="round" stroke-width="2"/>
    <g id="path-2" data-name="path" transform="translate(-1016.02 -781.823) rotate(45)" fill="#bfe563" stroke-linecap="round" stroke-linejoin="round">
      <path d="M 1307.7939453125 -171.0022583007812 C 1307.172485351562 -171.0022583007812 1306.61474609375 -171.3677978515625 1306.338745117188 -171.9562225341797 L 1303.68896484375 -177.6038818359375 L 1298.91015625 -175.4549713134766 C 1298.69580078125 -175.3583068847656 1298.469970703125 -175.30908203125 1298.239868164062 -175.30908203125 C 1297.623413085938 -175.30908203125 1297.0537109375 -175.6733093261719 1296.788330078125 -176.2370147705078 C 1296.526977539062 -176.79248046875 1296.610107421875 -177.4344329833984 1297.005493164062 -177.912353515625 L 1299.831787109375 -181.3240051269531 L 1297.100952148438 -181.3240051269531 C 1296.3427734375 -181.3240051269531 1295.698486328125 -181.8365325927734 1295.534057617188 -182.5703887939453 C 1295.370971679688 -183.298583984375 1295.731811523438 -184.0309906005859 1296.411499023438 -184.3514862060547 C 1300.040771484375 -186.0640869140625 1303.870483398438 -186.9324951171875 1307.794067382812 -186.9324951171875 C 1311.717529296875 -186.9324951171875 1315.547241210938 -186.0640869140625 1319.1767578125 -184.3513793945312 C 1319.856201171875 -184.0309906005859 1320.217041015625 -183.2985687255859 1320.053955078125 -182.5703887939453 C 1319.889526367188 -181.8365325927734 1319.245239257812 -181.3240051269531 1318.487060546875 -181.3240051269531 L 1315.757080078125 -181.3240051269531 L 1318.582153320312 -177.912841796875 C 1318.97802734375 -177.4342651367188 1319.061279296875 -176.7921905517578 1318.7998046875 -176.2366790771484 C 1318.53466796875 -175.6731872558594 1317.964965820312 -175.30908203125 1317.348510742188 -175.30908203125 C 1317.118530273438 -175.30908203125 1316.892822265625 -175.3582153320312 1316.677490234375 -175.4551391601562 L 1311.899047851562 -177.6038818359375 L 1309.249267578125 -171.9562377929688 C 1308.97314453125 -171.3677978515625 1308.41552734375 -171.0022583007812 1307.7939453125 -171.0022583007812 Z" stroke="none"/>
      <path d="M 1307.7939453125 -172.0022430419922 C 1308.009765625 -172.0022430419922 1308.2255859375 -172.1284942626953 1308.343994140625 -172.3809967041016 L 1311.159057617188 -178.3809967041016 C 1311.261352539062 -178.5980529785156 1311.480590820312 -178.7259368896484 1311.7099609375 -178.7259368896484 C 1311.79443359375 -178.7259368896484 1311.880126953125 -178.7086029052734 1311.962036132812 -178.6719970703125 L 1317.088012695312 -176.3670043945312 C 1317.1767578125 -176.3270416259766 1317.264770507812 -176.30908203125 1317.348510742188 -176.30908203125 C 1317.81396484375 -176.30908203125 1318.152709960938 -176.8631286621094 1317.81201171875 -177.2749938964844 L 1314.427978515625 -181.3609924316406 C 1314.108032226562 -181.7480010986328 1314.389038085938 -182.3240051269531 1314.89794921875 -182.3240051269531 L 1318.487060546875 -182.3240051269531 C 1319.130004882812 -182.3240051269531 1319.328979492188 -183.1739959716797 1318.75 -183.4470062255859 C 1315.238525390625 -185.10400390625 1311.516235351562 -185.9324951171875 1307.794067382812 -185.9324951171875 C 1304.07177734375 -185.9324951171875 1300.349487304688 -185.10400390625 1296.838012695312 -183.4470062255859 C 1296.259033203125 -183.1739959716797 1296.4580078125 -182.3240051269531 1297.100952148438 -182.3240051269531 L 1300.68994140625 -182.3240051269531 C 1301.198974609375 -182.3240051269531 1301.48095703125 -181.7480010986328 1301.161010742188 -181.3609924316406 L 1297.776000976562 -177.2749938964844 C 1297.435302734375 -176.8631591796875 1297.774780273438 -176.30908203125 1298.239868164062 -176.30908203125 C 1298.323608398438 -176.30908203125 1298.411376953125 -176.3270263671875 1298.5 -176.3670043945312 L 1303.6259765625 -178.6719970703125 C 1303.707763671875 -178.7086029052734 1303.793701171875 -178.7259368896484 1303.878173828125 -178.7259368896484 C 1304.107788085938 -178.7259368896484 1304.327392578125 -178.5980682373047 1304.428955078125 -178.3809967041016 L 1307.244018554688 -172.3809967041016 C 1307.362426757812 -172.1284942626953 1307.578247070312 -172.0022430419922 1307.7939453125 -172.0022430419922 M 1307.7939453125 -170.0022583007812 C 1306.780517578125 -170.0022583007812 1305.8759765625 -170.5882110595703 1305.433349609375 -171.5314788818359 L 1303.20166015625 -176.2882843017578 L 1299.320190429688 -174.5429382324219 C 1298.976806640625 -174.3880462646484 1298.612670898438 -174.30908203125 1298.239868164062 -174.30908203125 C 1297.237915039062 -174.30908203125 1296.31298828125 -174.8986968994141 1295.883544921875 -175.8111877441406 C 1295.455444335938 -176.7208251953125 1295.590087890625 -177.7701721191406 1296.23486328125 -178.5497131347656 L 1297.704711914062 -180.3240051269531 L 1297.100952148438 -180.3240051269531 C 1295.871215820312 -180.3240051269531 1294.82568359375 -181.1578826904297 1294.558227539062 -182.3518524169922 C 1294.292114257812 -183.5401611328125 1294.87890625 -184.734375 1295.984985351562 -185.2559814453125 C 1299.74853515625 -187.0319061279297 1303.721801757812 -187.9324951171875 1307.794067382812 -187.9324951171875 C 1311.8662109375 -187.9324951171875 1315.839477539062 -187.0319061279297 1319.603515625 -185.2557373046875 C 1320.709106445312 -184.734375 1321.2958984375 -183.5401458740234 1321.02978515625 -182.3518371582031 C 1320.762329101562 -181.1578826904297 1319.716796875 -180.3240051269531 1318.487060546875 -180.3240051269531 L 1317.883666992188 -180.3240051269531 L 1319.352294921875 -178.5506896972656 C 1319.998046875 -177.77001953125 1320.132690429688 -176.7205505371094 1319.70458984375 -175.8108673095703 C 1319.275268554688 -174.8985748291016 1318.350463867188 -174.30908203125 1317.348510742188 -174.30908203125 C 1316.976196289062 -174.30908203125 1316.6123046875 -174.3878631591797 1316.26708984375 -174.5432281494141 L 1312.386352539062 -176.2882843017578 L 1310.154663085938 -171.531494140625 C 1309.712036132812 -170.5882110595703 1308.807495117188 -170.0022583007812 1307.7939453125 -170.0022583007812 Z" stroke="none" fill="#aad353"/>
    </g>
  </g>
</svg>
