<svg xmlns="http://www.w3.org/2000/svg" width="40.249" height="46.051" viewBox="0 0 40.249 46.051">
  <g id="icon-mono-grapes" transform="translate(2.1 1)">
    <path id="path" d="M1169.556-178.09a8.95,8.95,0,0,0-8.955-8.956" transform="translate(-1151.532 187.046)" fill="none" stroke="#3b4853" stroke-linecap="round" stroke-linejoin="round" stroke-width="2"/>
    <path id="path-2" data-name="path" d="M1178.512-187.046a8.951,8.951,0,0,1-8.956,8.956A8.951,8.951,0,0,1,1178.512-187.046Z" transform="translate(-1151.532 187.046)" fill="#4e5d6a" stroke="#3b4853" stroke-linecap="round" stroke-linejoin="round" stroke-width="2"/>
    <g id="ellipse" transform="translate(0 10.986)" fill="#4e5d6a" stroke="#3b4853" stroke-linejoin="round" stroke-width="2.1">
      <circle cx="5.228" cy="5.228" r="5.228" stroke="none"/>
      <circle cx="5.228" cy="5.228" r="6.278" fill="none"/>
    </g>
    <g id="ellipse-2" data-name="ellipse" transform="translate(12.797 10.986)" fill="#4e5d6a" stroke="#3b4853" stroke-linejoin="round" stroke-width="2.1">
      <circle cx="5.228" cy="5.228" r="5.228" stroke="none"/>
      <circle cx="5.228" cy="5.228" r="6.278" fill="none"/>
    </g>
    <g id="ellipse-3" data-name="ellipse" transform="translate(19.195 21.741)" fill="#4e5d6a" stroke="#3b4853" stroke-linejoin="round" stroke-width="2.1">
      <circle cx="5.228" cy="5.228" r="5.228" stroke="none"/>
      <circle cx="5.228" cy="5.228" r="6.278" fill="none"/>
    </g>
    <g id="ellipse-4" data-name="ellipse" transform="translate(25.594 10.986)" fill="#4e5d6a" stroke="#3b4853" stroke-linejoin="round" stroke-width="2.1">
      <circle cx="5.228" cy="5.228" r="5.228" stroke="none"/>
      <circle cx="5.228" cy="5.228" r="6.278" fill="none"/>
    </g>
    <path id="path-3" data-name="path" d="M1153.921-171.01a2.838,2.838,0,0,0,2.839,2.839" transform="translate(-1151.532 187.046)" fill="#f0f4f8" stroke="#3b4853" stroke-linecap="round" stroke-linejoin="round" stroke-width="2"/>
    <g id="ellipse-5" data-name="ellipse" transform="translate(6.398 21.741)" fill="#4e5d6a" stroke="#3b4853" stroke-linejoin="round" stroke-width="2.1">
      <circle cx="5.228" cy="5.228" r="5.228" stroke="none"/>
      <circle cx="5.228" cy="5.228" r="6.278" fill="none"/>
    </g>
    <path id="path-4" data-name="path" d="M1160.319-160.255a2.838,2.838,0,0,0,2.839,2.839" transform="translate(-1151.532 187.046)" fill="#f0f4f8" stroke="#3b4853" stroke-linecap="round" stroke-linejoin="round" stroke-width="2"/>
    <g id="ellipse-6" data-name="ellipse" transform="translate(12.797 32.496)" fill="#4e5d6a" stroke="#3b4853" stroke-linejoin="round" stroke-width="2.1">
      <circle cx="5.228" cy="5.228" r="5.228" stroke="none"/>
      <circle cx="5.228" cy="5.228" r="6.278" fill="none"/>
    </g>
    <path id="path-5" data-name="path" d="M1166.718-149.5a2.836,2.836,0,0,0,2.838,2.838" transform="translate(-1151.532 187.046)" fill="#f0f4f8" stroke="#3b4853" stroke-linecap="round" stroke-linejoin="round" stroke-width="2"/>
  </g>
</svg>
