<svg xmlns="http://www.w3.org/2000/svg" width="48.043" height="48.043" viewBox="0 0 48.043 48.043">
  <g id="icon-mono-avocado" transform="translate(2 2)">
    <g id="path" transform="translate(-492.791 103.661)" fill="#4e5d6a" stroke-linejoin="round">
      <path d="M 509.2381286621094 -58.61874771118164 C 506.9724731445312 -58.61874771118164 504.763671875 -59.04859924316406 502.6730651855469 -59.89635848999023 C 500.5081176757812 -60.77426910400391 498.5660705566406 -62.063720703125 496.90087890625 -63.72888946533203 C 495.2357177734375 -65.39405822753906 493.9462585449219 -67.33609771728516 493.068359375 -69.50105285644531 C 492.2206115722656 -71.59163665771484 491.7907409667969 -73.80040740966797 491.7907409667969 -76.06600189208984 C 491.7907409667969 -78.33158874511719 492.2206115722656 -80.54035949707031 493.068359375 -82.63095092773438 C 493.9462585449219 -84.7958984375 495.2357177734375 -86.73793792724609 496.90087890625 -88.40310668945312 C 498.5935974121094 -90.09581756591797 500.6253051757812 -91.42390441894531 502.8448486328125 -92.29830169677734 L 502.7830810546875 -92.36068725585938 L 504.3997497558594 -92.82978820800781 C 506.2828369140625 -93.37320709228516 508.0561828613281 -94.21237945556641 509.6705017089844 -95.32399749755859 C 511.2848205566406 -96.43560791015625 512.7015380859375 -97.79312133789062 513.88134765625 -99.35880279541016 L 514.6103515625 -100.3262405395508 L 514.6498413085938 -100.282470703125 C 514.7991333007812 -100.4505767822266 514.9478149414062 -100.6086349487305 515.0989990234375 -100.7602310180664 C 517.6151123046875 -103.2763061523438 520.9593505859375 -104.6614990234375 524.5165405273438 -104.6614990234375 C 528.0736694335938 -104.6614990234375 531.4179077148438 -103.2763061523438 533.93310546875 -100.7611083984375 C 536.4483032226562 -98.24590301513672 537.83349609375 -94.90167999267578 537.83349609375 -91.34449768066406 C 537.83349609375 -87.78732299804688 536.4483032226562 -84.44309997558594 533.93310546875 -81.92788696289062 C 533.7562866210938 -81.75103759765625 533.5704956054688 -81.57767486572266 533.3703002929688 -81.40300750732422 L 533.40380859375 -81.36590576171875 L 532.5306396484375 -80.70823669433594 C 530.965087890625 -79.52899169921875 529.6076049804688 -78.11257934570312 528.4959716796875 -76.49832916259766 C 527.3843994140625 -74.88417816162109 526.5452270507812 -73.11090087890625 526.0018310546875 -71.22773742675781 L 525.5333862304688 -69.60440063476562 L 525.46875 -69.66869354248047 C 524.5942993164062 -67.45002746582031 523.2671508789062 -65.41994476318359 521.5761108398438 -63.72888946533203 C 519.91064453125 -62.06367874145508 517.9684448242188 -60.77425003051758 515.8033447265625 -59.8963508605957 C 513.712646484375 -59.04859924316406 511.5037841796875 -58.61874771118164 509.2381286621094 -58.61874771118164 Z" stroke="none"/>
      <path d="M 509.2381286621094 -59.61874771118164 C 513.447509765625 -59.61874771118164 517.6570434570312 -61.2244987487793 520.8690185546875 -64.43599700927734 C 522.9080200195312 -66.47499847412109 524.2940063476562 -68.91799926757812 525.0390014648438 -71.50699615478516 L 525.041015625 -71.50499725341797 C 526.1929931640625 -75.49700164794922 528.6099853515625 -79.00699615478516 531.9290161132812 -81.50699615478516 L 531.9199829101562 -81.51699829101562 C 532.3720092773438 -81.85800170898438 532.8140258789062 -82.22299957275391 533.2260131835938 -82.63500213623047 C 538.0360107421875 -87.44499969482422 538.0360107421875 -95.24399566650391 533.2260131835938 -100.0540008544922 C 530.8209838867188 -102.4589996337891 527.6687622070312 -103.6614990234375 524.5164794921875 -103.6614990234375 C 521.3642578125 -103.6614990234375 518.2119750976562 -102.4589996337891 515.8070068359375 -100.0540008544922 C 515.39501953125 -99.64099884033203 515.031005859375 -99.19999694824219 514.6890258789062 -98.74700164794922 L 514.6799926757812 -98.75699615478516 C 512.1790161132812 -95.43799591064453 508.6690063476562 -93.02099609375 504.677001953125 -91.86899566650391 L 504.6789855957031 -91.86699676513672 C 502.0899963378906 -91.12200164794922 499.6480102539062 -89.73600006103516 497.6080017089844 -87.69599914550781 C 491.1849975585938 -81.27300262451172 491.1849975585938 -70.85900115966797 497.6080017089844 -64.43599700927734 C 500.8194885253906 -61.2244987487793 505.0287475585938 -59.61874771118164 509.2381286621094 -59.61874771118164 M 509.2381286621094 -57.61874771118164 C 506.8430786132812 -57.61874771118164 504.5078125 -58.07326126098633 502.2973022460938 -58.96965026855469 C 500.0076293945312 -59.89812850952148 497.9541015625 -61.26145935058594 496.1937866210938 -63.02178955078125 C 494.4334716796875 -64.78209686279297 493.0701293945312 -66.83560943603516 492.1416625976562 -69.12525939941406 C 491.2452697753906 -71.33579254150391 490.7907409667969 -73.67098999023438 490.7907409667969 -76.06600189208984 C 490.7907409667969 -78.46100616455078 491.2452697753906 -80.79621124267578 492.1416625976562 -83.00673675537109 C 493.0701293945312 -85.29638671875 494.4334716796875 -87.34989929199219 496.1937866210938 -89.11020660400391 C 498.3695678710938 -91.28597259521484 501.0750122070312 -92.89198303222656 504.0233459472656 -93.75917053222656 C 504.0559692382812 -93.77045440673828 504.0890808105469 -93.78095245361328 504.1224670410156 -93.79058837890625 C 505.9020080566406 -94.30412292480469 507.5778198242188 -95.09713745117188 509.1033325195312 -96.14762115478516 C 510.62890625 -97.19811248779297 511.9677734375 -98.48098754882812 513.0827026367188 -99.96060943603516 C 513.1320190429688 -100.0260925292969 513.18505859375 -100.0880813598633 513.2413330078125 -100.1463623046875 C 513.635498046875 -100.655517578125 514.0045166015625 -101.078987121582 514.3910522460938 -101.4664611816406 C 517.0968627929688 -104.1723022460938 520.6921997070312 -105.6614990234375 524.5165405273438 -105.6614990234375 C 528.3408203125 -105.6614990234375 531.9361572265625 -104.1723022460938 534.6401977539062 -101.4682083129883 C 537.3442993164062 -98.76412963867188 538.83349609375 -95.16879272460938 538.83349609375 -91.34449768066406 C 538.83349609375 -87.52021026611328 537.3442993164062 -83.92486572265625 534.6401977539062 -81.22078704833984 C 534.2526245117188 -80.83314514160156 533.8287963867188 -80.46345520019531 533.319091796875 -80.06901550292969 C 533.2604370117188 -80.01235961914062 533.1981811523438 -79.95907592773438 533.13232421875 -79.90947723388672 C 531.65283203125 -78.79509735107422 530.3700561523438 -77.45659637451172 529.319580078125 -75.93115997314453 C 528.2691650390625 -74.40579986572266 527.4761352539062 -72.73005676269531 526.9625854492188 -70.95047760009766 C 526.9529418945312 -70.91690826416016 526.9423828125 -70.88372039794922 526.9310302734375 -70.85092926025391 C 526.0635986328125 -67.90167236328125 524.4580688476562 -65.19661712646484 522.283203125 -63.02178955078125 C 520.5225830078125 -61.26139068603516 518.4688720703125 -59.89809036254883 516.1791381835938 -58.96963119506836 C 513.9684448242188 -58.07324981689453 511.6331787109375 -57.61874771118164 509.2381286621094 -57.61874771118164 Z" stroke="none" fill="#3b4853"/>
    </g>
    <g id="ellipse" transform="translate(8.99 20.138)" fill="#3b4853" stroke="#3b4853" stroke-linejoin="round" stroke-width="2">
      <circle cx="7.458" cy="7.458" r="7.458" stroke="none"/>
      <circle cx="7.458" cy="7.458" r="8.458" fill="none"/>
    </g>
    <path id="path-2" data-name="path" d="M529.929-98.129a7.573,7.573,0,0,0-10.715,0" transform="translate(-492.791 103.661)" fill="none" stroke="#3b4853" stroke-linecap="round" stroke-linejoin="round" stroke-width="2"/>
  </g>
</svg>
