<svg xmlns="http://www.w3.org/2000/svg" width="40.249" height="46.051" viewBox="0 0 40.249 46.051">
  <g id="icon-colour-grapes" transform="translate(2.1 1)">
    <path id="path" d="M1472.331-183.4a8.951,8.951,0,0,0-8.956-8.956" transform="translate(-1454.306 192.361)" fill="none" stroke="#aad353" stroke-linecap="round" stroke-linejoin="round" stroke-width="2"/>
    <path id="path-2" data-name="path" d="M1481.286-192.361a8.95,8.95,0,0,1-8.955,8.956A8.95,8.95,0,0,1,1481.286-192.361Z" transform="translate(-1454.306 192.361)" fill="#bfe563" stroke="#aad353" stroke-linecap="round" stroke-linejoin="round" stroke-width="2"/>
    <g id="ellipse" transform="translate(0 10.986)" fill="#9c6be8" stroke="#8156d6" stroke-linejoin="round" stroke-width="2.1">
      <circle cx="5.228" cy="5.228" r="5.228" stroke="none"/>
      <circle cx="5.228" cy="5.228" r="6.278" fill="none"/>
    </g>
    <g id="ellipse-2" data-name="ellipse" transform="translate(12.797 10.986)" fill="#9c6be8" stroke="#8156d6" stroke-linejoin="round" stroke-width="2.1">
      <circle cx="5.228" cy="5.228" r="5.228" stroke="none"/>
      <circle cx="5.228" cy="5.228" r="6.278" fill="none"/>
    </g>
    <g id="ellipse-3" data-name="ellipse" transform="translate(19.195 21.741)" fill="#9c6be8" stroke="#8156d6" stroke-linejoin="round" stroke-width="2.1">
      <circle cx="5.228" cy="5.228" r="5.228" stroke="none"/>
      <circle cx="5.228" cy="5.228" r="6.278" fill="none"/>
    </g>
    <g id="ellipse-4" data-name="ellipse" transform="translate(25.594 10.986)" fill="#9c6be8" stroke="#8156d6" stroke-linejoin="round" stroke-width="2.1">
      <circle cx="5.228" cy="5.228" r="5.228" stroke="none"/>
      <circle cx="5.228" cy="5.228" r="6.278" fill="none"/>
    </g>
    <path id="path-3" data-name="path" d="M1456.695-176.325a2.838,2.838,0,0,0,2.839,2.839" transform="translate(-1454.306 192.361)" fill="none" stroke="#8156d6" stroke-linecap="round" stroke-linejoin="round" stroke-width="2"/>
    <g id="ellipse-5" data-name="ellipse" transform="translate(6.398 21.741)" fill="#9c6be8" stroke="#8156d6" stroke-linejoin="round" stroke-width="2.1">
      <circle cx="5.228" cy="5.228" r="5.228" stroke="none"/>
      <circle cx="5.228" cy="5.228" r="6.278" fill="none"/>
    </g>
    <path id="path-4" data-name="path" d="M1463.094-165.57a2.836,2.836,0,0,0,2.838,2.838" transform="translate(-1454.306 192.361)" fill="none" stroke="#8156d6" stroke-linecap="round" stroke-linejoin="round" stroke-width="2"/>
    <g id="ellipse-6" data-name="ellipse" transform="translate(12.797 32.495)" fill="#9c6be8" stroke="#8156d6" stroke-linejoin="round" stroke-width="2.1">
      <circle cx="5.228" cy="5.228" r="5.228" stroke="none"/>
      <circle cx="5.228" cy="5.228" r="6.278" fill="none"/>
    </g>
    <path id="path-5" data-name="path" d="M1469.492-154.815a2.837,2.837,0,0,0,2.839,2.838" transform="translate(-1454.306 192.361)" fill="none" stroke="#8156d6" stroke-linecap="round" stroke-linejoin="round" stroke-width="2"/>
  </g>
</svg>
