<svg xmlns="http://www.w3.org/2000/svg" width="51.783" height="51.785" viewBox="0 0 51.783 51.785">
  <g id="icon-mono-banana" transform="translate(2 2)">
    <g id="path" transform="translate(-314.73 105.615)" fill="#4e5d6a" stroke-linejoin="round">
      <path d="M 334.5159606933594 -56.83004379272461 C 332.1987609863281 -56.83004379272461 329.8952026367188 -57.10273361206055 327.6692504882812 -57.64053344726562 C 325.5009460449219 -58.16440200805664 323.3958129882812 -58.94204330444336 321.4123229980469 -59.95184326171875 C 320.5390319824219 -60.39687347412109 319.5314025878906 -60.63200378417969 318.4979858398438 -60.63200378417969 L 315.9240112304688 -60.63200378417969 C 314.7142333984375 -60.63200378417969 313.7300109863281 -61.6162223815918 313.7300109863281 -62.82600021362305 L 313.7300109863281 -63.66100311279297 C 313.7300109863281 -64.87133026123047 314.7142333984375 -65.85600280761719 315.9240112304688 -65.85600280761719 L 319.3219909667969 -65.85600280761719 C 324.0729675292969 -65.85600280761719 328.6798400878906 -66.78465270996094 333.0146484375 -68.61617279052734 C 337.2028503417969 -70.38574981689453 340.963623046875 -72.91976165771484 344.1924743652344 -76.14781951904297 C 347.4217834472656 -79.37631225585938 349.956787109375 -83.13686370849609 351.7270812988281 -87.32501220703125 C 353.5597534179688 -91.66078948974609 354.489013671875 -96.26946258544922 354.489013671875 -101.0230026245117 L 354.489013671875 -104.4209899902344 C 354.489013671875 -105.6307754516602 355.4732360839844 -106.614990234375 356.6830139160156 -106.614990234375 L 357.5069885253906 -106.614990234375 C 358.7167663574219 -106.614990234375 359.7009887695312 -105.6307754516602 359.7009887695312 -104.4209899902344 L 359.7009887695312 -101.8479995727539 C 359.7009887695312 -100.8126983642578 359.9350891113281 -99.80612182617188 360.3779602050781 -98.93704986572266 C 362.7910766601562 -94.20523834228516 363.8440551757812 -88.86669158935547 363.4229431152344 -83.49879455566406 C 362.8638916015625 -76.38843536376953 359.6483764648438 -69.73529052734375 354.3687133789062 -64.7647705078125 C 349.0928649902344 -59.79783248901367 342.2577209472656 -56.98208236694336 335.1224365234375 -56.83621215820312 C 334.9209899902344 -56.83212280273438 334.7169799804688 -56.83004379272461 334.5159606933594 -56.83004379272461 Z" stroke="none"/>
      <path d="M 356.6830139160156 -105.6150054931641 C 356.0239868164062 -105.6150054931641 355.489013671875 -105.0800018310547 355.489013671875 -104.4210052490234 L 355.489013671875 -101.0230026245117 C 355.489013671875 -81.0260009765625 339.3059997558594 -64.85600280761719 319.3219909667969 -64.85600280761719 L 315.9240112304688 -64.85600280761719 C 315.2650146484375 -64.85600280761719 314.7300109863281 -64.32099914550781 314.7300109863281 -63.66099548339844 L 314.7300109863281 -62.82600402832031 C 314.7300109863281 -62.16600036621094 315.2650146484375 -61.63200378417969 315.9240112304688 -61.63200378417969 L 318.4979858398438 -61.63200378417969 C 319.6669921875 -61.63200378417969 320.8240051269531 -61.37400054931641 321.8659973144531 -60.84300231933594 C 325.6580810546875 -58.91244506835938 329.9588623046875 -57.83003997802734 334.5159606933594 -57.83003997802734 C 334.7105712890625 -57.83003997802734 334.9064636230469 -57.83203125 335.1019897460938 -57.83599853515625 C 349.3359985351562 -58.12699890136719 361.3099975585938 -69.38300323486328 362.4259948730469 -83.57700347900391 C 362.8489990234375 -88.96900177001953 361.7369995117188 -94.07099914550781 359.4869995117188 -98.48300170898438 C 358.9570007324219 -99.52300262451172 358.7009887695312 -100.6800003051758 358.7009887695312 -101.8480072021484 L 358.7009887695312 -104.4210052490234 C 358.7009887695312 -105.0800018310547 358.1659851074219 -105.6150054931641 357.5069885253906 -105.6150054931641 L 356.6830139160156 -105.6150054931641 M 356.6830139160156 -107.6150054931641 L 357.5069885253906 -107.6150054931641 C 359.2681579589844 -107.6150054931641 360.7009887695312 -106.1821823120117 360.7009887695312 -104.4210052490234 L 360.7009887695312 -101.8480072021484 C 360.7009887695312 -100.9697875976562 360.8973999023438 -100.1202087402344 361.2689514160156 -99.39111328125 C 363.7657470703125 -94.49514007568359 364.8554077148438 -88.97245025634766 364.4198608398438 -83.42058563232422 C 363.8412780761719 -76.06178283691406 360.5151672363281 -69.17790222167969 355.05419921875 -64.03667449951172 C 349.5976257324219 -58.89960479736328 342.5263061523438 -55.98736572265625 335.1428833007812 -55.83641815185547 C 334.9343566894531 -55.83218383789062 334.7235107421875 -55.83003997802734 334.5159606933594 -55.83003997802734 C 332.1197509765625 -55.83003997802734 329.7371826171875 -56.11214447021484 327.4343872070312 -56.66850280761719 C 325.1903381347656 -57.21067047119141 323.0115661621094 -58.01551818847656 320.9586181640625 -59.06068420410156 C 320.2249145507812 -59.43456268310547 319.3742980957031 -59.63200378417969 318.4979858398438 -59.63200378417969 L 315.9240112304688 -59.63200378417969 C 314.162841796875 -59.63200378417969 312.7300109863281 -61.0648193359375 312.7300109863281 -62.82600402832031 L 312.7300109863281 -63.66099548339844 C 312.7300109863281 -65.42272186279297 314.162841796875 -66.85600280761719 315.9240112304688 -66.85600280761719 L 319.3219909667969 -66.85600280761719 C 323.9385375976562 -66.85600280761719 328.4144592285156 -67.75813293457031 332.6254272460938 -69.53732299804688 C 336.6943359375 -71.25649261474609 340.3481750488281 -73.71852111816406 343.4854736328125 -76.85501098632812 C 346.6231384277344 -79.99192047119141 349.0861206054688 -83.64553070068359 350.8059692382812 -87.71435546875 C 352.5863037109375 -91.92626190185547 353.489013671875 -96.40393829345703 353.489013671875 -101.0230026245117 L 353.489013671875 -104.4210052490234 C 353.489013671875 -106.1821823120117 354.9218444824219 -107.6150054931641 356.6830139160156 -107.6150054931641 Z" stroke="none" fill="#3b4853"/>
    </g>
    <path id="path-2" data-name="path" d="M333.557-61.242A25.547,25.547,0,0,0,359.118-86.8" transform="translate(-314.73 105.615)" fill="none" stroke="#3b4853" stroke-linecap="round" stroke-linejoin="round" stroke-width="2"/>
  </g>
</svg>
